<svg width="160" height="34" viewBox="0 0 160 34" fill="none" xmlns="http://www.w3.org/2000/svg">
<path d="M24.3312 0.081687C15.2063 0.214427 7.74944 7.2762 7.55118 15.9715C7.48203 18.896 8.24711 21.7836 9.76481 24.3263C9.82433 24.4258 9.91143 24.5078 10.0166 24.5633C10.1217 24.6188 10.2408 24.6457 10.3609 24.6411C10.481 24.6364 10.5975 24.6003 10.6975 24.5368C10.7975 24.4733 10.8773 24.3848 10.9281 24.281C12.1592 21.7922 12.7966 19.0744 12.7944 16.3228C12.7933 13.6051 13.826 10.979 15.7011 8.93155C15.9131 8.69094 16.2103 8.53277 16.5364 8.48701C16.8626 8.44124 17.195 8.51107 17.4707 8.68325C17.6244 8.78343 17.7539 8.91366 17.8506 9.06526C17.9473 9.21686 18.009 9.38636 18.0317 9.56247C18.0543 9.73858 18.0373 9.91727 17.9818 10.0866C17.9264 10.256 17.8337 10.4122 17.7099 10.5447C16.2322 12.14 15.4164 14.1947 15.416 16.3228C15.4209 20.0714 14.378 23.7535 12.3946 26.9905C12.3211 27.1095 12.291 27.2484 12.3091 27.3854C12.3272 27.5224 12.3924 27.6499 12.4946 27.7479C13.1451 28.3764 13.8481 28.9535 14.5968 29.4735C14.6708 29.5252 14.7555 29.5616 14.8452 29.5801C14.935 29.5987 15.0278 29.5991 15.1177 29.5813C15.2076 29.5635 15.2926 29.5278 15.3671 29.4767C15.4417 29.4256 15.5041 29.3601 15.5504 29.2845C16.2531 28.1861 16.8656 27.0374 17.3822 25.8489C17.4479 25.6971 17.5442 25.5592 17.6658 25.4429C17.7873 25.3266 17.9317 25.2343 18.0907 25.1712C18.2497 25.1082 18.4202 25.0756 18.5924 25.0753C18.7647 25.075 18.9352 25.107 19.0945 25.1696C19.2537 25.2321 19.3984 25.3239 19.5204 25.4398C19.6424 25.5557 19.7393 25.6933 19.8055 25.8448C19.8717 25.9964 19.9059 26.1589 19.9062 26.323C19.9065 26.4871 19.8729 26.6497 19.8072 26.8015C19.2568 28.0712 18.6078 29.3 17.8656 30.4776C17.8175 30.5545 17.7872 30.6403 17.7769 30.7292C17.7666 30.8181 17.7765 30.9082 17.8058 30.9932C17.8352 31.0782 17.8834 31.1561 17.9471 31.2219C18.0109 31.2876 18.0887 31.3394 18.1753 31.374C19.4894 31.8848 20.8656 32.2363 22.2715 32.4203C22.4028 32.4387 22.5368 32.4187 22.6559 32.3629C22.775 32.3071 22.8735 32.2183 22.9384 32.108C25.3401 27.9956 26.77 23.4328 27.1281 18.7387C27.1353 18.5715 27.1777 18.4074 27.2528 18.2561C27.3279 18.1048 27.4341 17.9694 27.5651 17.858C27.6962 17.7466 27.8493 17.6614 28.0156 17.6075C28.1818 17.5535 28.3577 17.532 28.5329 17.5442C28.708 17.5563 28.8788 17.6019 29.0351 17.6781C29.1914 17.7544 29.33 17.8598 29.4428 17.9881C29.5555 18.1164 29.64 18.265 29.6914 18.4251C29.7427 18.5851 29.7597 18.7534 29.7415 18.9199C29.408 23.2982 28.2083 27.5769 26.2056 31.5302C26.1532 31.6313 26.1306 31.744 26.14 31.8564C26.1494 31.9688 26.1906 32.0767 26.2591 32.1686C26.3276 32.2605 26.421 32.333 26.5293 32.3784C26.6376 32.4238 26.7567 32.4405 26.8741 32.4266C28.024 32.2794 29.155 32.0203 30.2494 31.6535C30.3356 31.6243 30.4143 31.5782 30.4806 31.5182C30.5469 31.4583 30.5993 31.3857 30.6345 31.3053C32.6778 26.6452 33.7422 21.6483 33.7673 16.5977C33.8034 11.8128 29.9332 7.74782 24.9194 7.58229C24.0365 7.55313 23.1537 7.6441 22.2978 7.85245C22.1249 7.89476 21.9447 7.90296 21.7684 7.87656C21.592 7.85015 21.4232 7.78969 21.2722 7.69889C21.1213 7.60809 20.9913 7.48885 20.8905 7.3485C20.7896 7.20814 20.7198 7.04963 20.6855 6.88267C20.6284 6.55904 20.7033 6.22685 20.8949 5.9542C21.0866 5.68155 21.3804 5.48909 21.7161 5.41628C23.4561 5.00105 25.2724 4.96917 27.0273 5.32305C28.7821 5.67693 30.4292 6.40728 31.8436 7.45861C33.258 8.50995 34.4025 9.85465 35.19 11.3906C35.9776 12.9265 36.3876 14.6133 36.3889 16.3228C36.3929 20.2672 35.8047 24.1918 34.6423 27.9774C34.6017 28.1073 34.6065 28.2461 34.656 28.3731C34.7055 28.5001 34.7969 28.6084 34.9166 28.6815C35.0362 28.7547 35.1776 28.7888 35.3193 28.7786C35.4611 28.7685 35.5955 28.7148 35.7024 28.6255C38.3535 26.4486 40.2372 23.5466 41.0974 20.3137C41.9577 17.0809 41.7528 13.674 40.5107 10.5561C39.2685 7.43807 37.0494 4.76014 34.1547 2.88616C31.26 1.01218 27.8301 0.0330062 24.3312 0.081687ZM24.5917 11.3256C25.3293 11.3261 26.0585 11.4748 26.7318 11.7619C27.4052 12.049 28.0075 12.4681 28.4995 12.9918C28.6215 13.1218 28.7136 13.2747 28.7698 13.4406C28.826 13.6066 28.8452 13.7819 28.8261 13.9553C28.8069 14.1288 28.7499 14.2965 28.6587 14.4476C28.5675 14.5988 28.444 14.7301 28.2963 14.833C28.0237 15.0119 27.6918 15.0894 27.3633 15.0509C27.0348 15.0123 26.7325 14.8604 26.5136 14.6238C26.1713 14.2721 25.7301 14.0218 25.2425 13.9027C24.755 13.7836 24.2418 13.8008 23.7642 13.9523C23.2326 14.1286 22.7726 14.4598 22.4492 14.8989C22.1258 15.338 21.9553 15.8629 21.9619 16.3994C21.9573 18.129 21.7823 19.8544 21.4392 21.5528C21.3829 21.8361 21.2255 22.092 20.9938 22.2773C20.762 22.4626 20.4702 22.5658 20.1677 22.5694C20.0852 22.5698 20.0029 22.5625 19.9219 22.5476C19.578 22.473 19.2779 22.274 19.085 21.9925C18.8921 21.7111 18.8214 21.3692 18.888 21.039C19.1968 19.4842 19.3509 17.9052 19.3484 16.3228C19.3484 14.9975 19.9009 13.7264 20.8842 12.7892C21.8674 11.8521 23.2011 11.3256 24.5917 11.3256Z" fill="white"/>
<path d="M57.5828 15.3077H58.8254C60.3729 15.3077 61.4652 15.1081 62.1024 14.709C62.7487 14.3013 63.0719 13.6202 63.0719 12.6659C63.0719 11.6248 62.776 10.896 62.1843 10.4796C61.5926 10.0544 60.473 9.84189 58.8254 9.84189H57.5828V15.3077ZM57.5828 23.7275H58.7025C59.8404 23.7275 60.6915 23.6842 61.2558 23.5974C61.8202 23.5107 62.2663 23.3588 62.594 23.1419C62.9945 22.8903 63.304 22.552 63.5224 22.1269C63.7409 21.7017 63.8501 21.2332 63.8501 20.7214C63.8501 20.1141 63.7182 19.5848 63.4542 19.1337C63.1902 18.6826 62.8124 18.3312 62.3209 18.0796C62.0114 17.9321 61.6564 17.8236 61.2558 17.7542C60.8644 17.6848 60.341 17.6501 59.6856 17.6501H57.5828V23.7275ZM54.4014 26.3173V7.26517H59.4398C60.8781 7.26517 61.9386 7.33891 62.6213 7.4864C63.3131 7.63389 63.9002 7.87681 64.3827 8.21517C65.0017 8.64896 65.4796 9.21723 65.8164 9.91997C66.1623 10.6227 66.3352 11.3992 66.3352 12.2494C66.3352 13.2645 66.0894 14.1147 65.5979 14.8001C65.1063 15.4768 64.3918 15.9497 63.4542 16.2186C64.6193 16.3921 65.5342 16.8997 66.1987 17.7412C66.8723 18.5741 67.2091 19.6282 67.2091 20.9036C67.2091 21.6757 67.068 22.4088 66.7858 23.1029C66.5036 23.797 66.1031 24.3869 65.5842 24.8728C65.0381 25.402 64.3599 25.775 63.5498 25.9919C62.7396 26.2088 61.3787 26.3173 59.4671 26.3173H54.4014Z" fill="white"/>
<path d="M69.1343 8.64462C69.1343 8.16745 69.3164 7.75535 69.6805 7.40832C70.0537 7.06128 70.4952 6.88777 71.005 6.88777C71.5329 6.88777 71.9699 7.05695 72.3158 7.3953C72.6708 7.72499 72.8483 8.14143 72.8483 8.64462C72.8483 9.14782 72.6708 9.57294 72.3158 9.91997C71.9608 10.2583 71.5238 10.4275 71.005 10.4275C70.4952 10.4275 70.0537 10.254 69.6805 9.90696C69.3164 9.55125 69.1343 9.13047 69.1343 8.64462ZM69.5303 26.3173V13.9803H72.4933V26.3173H69.5303Z" fill="white"/>
<path d="M86.0383 20.1878C86.0383 19.0426 85.6514 18.0752 84.8777 17.2857C84.1039 16.4876 83.1572 16.0885 82.0376 16.0885C80.9271 16.0885 79.9804 16.4876 79.1975 17.2857C78.4238 18.0752 78.0369 19.0426 78.0369 20.1878C78.0369 21.333 78.4238 22.3047 79.1975 23.1029C79.9804 23.8924 80.9271 24.2871 82.0376 24.2871C83.1481 24.2871 84.0903 23.8924 84.864 23.1029C85.6469 22.3047 86.0383 21.333 86.0383 20.1878ZM74.9101 20.1618C74.9101 19.2595 75.0876 18.4093 75.4426 17.6111C75.8067 16.8042 76.3256 16.0885 76.9992 15.4638C77.6637 14.8478 78.4283 14.375 79.2931 14.0453C80.1579 13.7156 81.0636 13.5508 82.0103 13.5508C82.9843 13.5508 83.8991 13.7156 84.7548 14.0453C85.6196 14.375 86.3933 14.8609 87.076 15.5029C87.7587 16.1362 88.2776 16.852 88.6326 17.6501C88.9876 18.4483 89.1651 19.2855 89.1651 20.1618C89.1651 21.0727 88.9876 21.9273 88.6326 22.7255C88.2867 23.5237 87.7769 24.2307 87.1033 24.8467C86.3933 25.4974 85.6059 25.9876 84.7411 26.3173C83.8764 26.6556 82.9661 26.8248 82.0103 26.8248C81.0727 26.8248 80.1715 26.6556 79.3068 26.3173C78.442 25.9876 77.6728 25.5061 76.9992 24.8728C76.3165 24.2307 75.7976 23.5107 75.4426 22.7125C75.0876 21.9143 74.9101 21.0641 74.9101 20.1618Z" fill="white"/>
<path d="M94.3947 26.3173H91.4317V13.9803H94.2172V15.9974C94.8089 15.1385 95.4779 14.5138 96.2244 14.1234C96.9799 13.7243 97.8674 13.5248 98.8869 13.5248C99.8973 13.5248 100.735 13.7287 101.399 14.1364C102.064 14.5355 102.569 15.1472 102.915 15.9714C103.598 15.1211 104.321 14.5008 105.086 14.1104C105.86 13.72 106.738 13.5248 107.721 13.5248C108.577 13.5248 109.323 13.6766 109.961 13.9803C110.598 14.2752 111.094 14.709 111.449 15.2816C111.613 15.5506 111.731 15.8716 111.804 16.2446C111.886 16.6177 111.927 17.1513 111.927 17.8453V26.3173H108.964V19.9796C108.964 18.3225 108.777 17.2337 108.404 16.7131C108.04 16.1839 107.384 15.9193 106.438 15.9193C105.273 15.9193 104.44 16.275 103.939 16.9864C103.447 17.6892 103.202 18.9255 103.202 20.6953V26.3173H100.211V19.9796C100.211 18.4526 100.016 17.3942 99.6243 16.8042C99.2419 16.2143 98.5774 15.9193 97.6307 15.9193C97.0482 15.9193 96.5156 16.0451 96.0332 16.2967C95.5507 16.5483 95.1684 16.8953 94.8862 17.3378C94.7042 17.6241 94.5767 17.9755 94.5039 18.3919C94.4311 18.8084 94.3947 19.5762 94.3947 20.6953V26.3173Z" fill="white"/>
<path d="M127.206 26.3173H124.243V24.7166C123.715 25.428 123.096 25.9572 122.386 26.3043C121.685 26.6513 120.879 26.8248 119.969 26.8248C118.139 26.8248 116.697 26.2305 115.641 25.0419C114.594 23.8447 114.07 22.2093 114.07 20.1358C114.07 18.1663 114.608 16.5787 115.682 15.3727C116.756 14.1581 118.158 13.5508 119.887 13.5508C120.943 13.5508 121.844 13.7634 122.591 14.1885C123.346 14.6049 123.897 15.2079 124.243 15.9974V13.9803H127.206V26.3173ZM124.325 20.1097C124.325 18.8344 124.011 17.841 123.383 17.1296C122.764 16.4182 121.894 16.0625 120.775 16.0625C119.655 16.0625 118.772 16.4312 118.126 17.1686C117.489 17.8974 117.17 18.9125 117.17 20.2138C117.17 21.5239 117.479 22.5346 118.098 23.246C118.717 23.9575 119.591 24.3132 120.72 24.3132C121.785 24.3132 122.65 23.9271 123.314 23.1549C123.988 22.3828 124.325 21.3677 124.325 20.1097Z" fill="white"/>
<path d="M133.391 15.9453C133.71 15.1298 134.129 14.5268 134.647 14.1364C135.175 13.746 135.826 13.5508 136.6 13.5508C137.019 13.5508 137.428 13.5985 137.829 13.694C138.238 13.7894 138.639 13.9282 139.03 14.1104L137.965 16.5049C137.71 16.3314 137.433 16.2056 137.132 16.1275C136.841 16.0408 136.513 15.9974 136.149 15.9974C135.166 15.9974 134.461 16.3748 134.033 17.1296C133.605 17.8757 133.391 19.1337 133.391 20.9036V26.3173H130.428V13.9542H133.391V15.9453Z" fill="white"/>
<path d="M139.85 26.3173V6.14599H142.813V19.0947L148.233 13.9803H151.893L146.021 19.42L152.453 26.3173H148.629L142.813 19.9536V26.3173H139.85Z" fill="white"/>
</svg>
