<svg width="160" height="34" viewBox="0 0 160 34" fill="none" xmlns="http://www.w3.org/2000/svg">
<path d="M32.0261 9.20761V8.58424C32.0244 7.23347 31.6198 5.91327 30.8631 4.78932C30.1063 3.66536 29.0311 2.78771 27.7724 2.26651C26.5137 1.7453 25.1275 1.60376 23.7878 1.85964C22.4481 2.11552 21.2146 2.75743 20.242 3.70481C20.1845 3.76222 20.139 3.83033 20.1082 3.90523C20.0774 3.98012 20.0619 4.06031 20.0626 4.14117V17.9675C20.0629 18.0799 20.0939 18.1901 20.1523 18.2865C20.2107 18.3829 20.2943 18.4618 20.3943 18.515C20.4943 18.5682 20.607 18.5936 20.7204 18.5886C20.8338 18.5836 20.9437 18.5483 21.0385 18.4865C22.236 17.7263 23.627 17.3188 25.0495 17.3114C25.3787 17.3054 25.6978 17.4244 25.9411 17.6441C26.1845 17.8639 26.3335 18.1675 26.3576 18.4927C26.3666 18.6618 26.3406 18.831 26.2814 18.9899C26.2221 19.1488 26.1308 19.2941 26.013 19.4169C25.8951 19.5397 25.7532 19.6374 25.596 19.7041C25.4387 19.7708 25.2694 19.8051 25.0983 19.8049C23.7623 19.8049 22.4811 20.3303 21.5364 21.2655C20.5917 22.2008 20.061 23.4692 20.061 24.7918V30.0718C20.0609 30.165 20.0819 30.2571 20.1225 30.3413C20.1631 30.4254 20.2222 30.4995 20.2956 30.558C21.1892 31.2902 22.2413 31.8085 23.3702 32.0726C24.4991 32.3367 25.6742 32.3395 26.8044 32.0807C27.9345 31.822 28.9892 31.3087 29.8863 30.5808C30.7835 29.8529 31.499 28.93 31.9773 27.8838C32.0254 27.7785 32.0431 27.6622 32.0283 27.5476C32.0135 27.433 31.9669 27.3247 31.8936 27.2349C31.8203 27.145 31.7232 27.0771 31.6132 27.0387C31.5032 27.0002 31.3845 26.9928 31.2705 27.0173C30.4856 27.1954 29.683 27.2853 28.8778 27.2853H27.661C27.3361 27.2893 27.0217 27.1715 26.7808 26.9556C26.54 26.7397 26.3905 26.4416 26.3623 26.1212C26.3509 25.9506 26.375 25.7796 26.4331 25.6187C26.4913 25.4577 26.5822 25.3104 26.7003 25.1857C26.8184 25.061 26.9611 24.9617 27.1196 24.894C27.2781 24.8262 27.449 24.7915 27.6216 24.7918H28.8809C30.1966 24.7938 31.4931 24.4794 32.6589 23.8755C34.0394 23.1637 35.1864 22.0769 35.9652 20.7426C36.744 19.4083 37.1223 17.8819 37.0559 16.3422C36.9895 14.8026 36.481 13.3137 35.5901 12.05C34.6993 10.7863 33.4629 9.8003 32.0261 9.20761ZM30.1371 14.8179H29.5074C28.0045 14.8179 26.5631 14.2268 25.5003 13.1747C24.4376 12.1226 23.8405 10.6956 23.8405 9.20761V8.58424C23.8405 8.25358 23.9732 7.93647 24.2094 7.70266C24.4455 7.46885 24.7658 7.3375 25.0998 7.3375C25.4338 7.3375 25.7541 7.46885 25.9903 7.70266C26.2265 7.93647 26.3592 8.25358 26.3592 8.58424V9.20761C26.3592 9.61692 26.4406 10.0222 26.5988 10.4004C26.757 10.7785 26.9889 11.1221 27.2813 11.4116C27.8717 11.9961 28.6725 12.3245 29.5074 12.3245H30.1371C30.4711 12.3245 30.7914 12.4558 31.0276 12.6896C31.2637 12.9234 31.3964 13.2405 31.3964 13.5712C31.3964 13.9018 31.2637 14.219 31.0276 14.4528C30.7914 14.6866 30.4711 14.8179 30.1371 14.8179ZM12.5067 1.72717C10.6704 1.72924 8.90988 2.45234 7.61141 3.73784C6.31294 5.02334 5.58254 6.76626 5.58046 8.58424V9.20761C4.14379 9.80062 2.90768 10.7869 2.0171 12.0507C1.12653 13.3146 0.618398 14.8036 0.552306 16.3432C0.486214 17.8828 0.864899 19.4092 1.64395 20.7433C2.42301 22.0774 3.57013 23.1639 4.9508 23.8755C6.11657 24.4794 7.41305 24.7938 8.72875 24.7918H9.94556C10.271 24.7871 10.5862 24.9045 10.8277 25.1205C11.0692 25.3365 11.2192 25.635 11.2474 25.956C11.2588 26.1265 11.2347 26.2976 11.1766 26.4585C11.1184 26.6194 11.0275 26.7668 10.9094 26.8915C10.7913 27.0161 10.6486 27.1154 10.4901 27.1832C10.3316 27.2509 10.1607 27.2857 9.98806 27.2853H8.72875C7.92291 27.2857 7.11965 27.1952 6.33448 27.0157C6.22053 26.9911 6.10192 26.9983 5.99186 27.0365C5.88181 27.0747 5.78464 27.1425 5.71119 27.2322C5.63774 27.3218 5.59089 27.43 5.57587 27.5445C5.56084 27.659 5.57824 27.7754 5.62611 27.8806C6.10423 28.9271 6.81969 29.8504 7.71686 30.5786C8.61403 31.3069 9.66875 31.8204 10.799 32.0795C11.9293 32.3385 13.1047 32.3359 14.2338 32.0721C15.363 31.8082 16.4154 31.2901 17.3094 30.558C17.3827 30.4995 17.4419 30.4254 17.4825 30.3413C17.5231 30.2571 17.5441 30.165 17.544 30.0718V24.7918C17.544 23.4692 17.0132 22.2008 16.0686 21.2655C15.1239 20.3303 13.8427 19.8049 12.5067 19.8049C12.3356 19.8051 12.1663 19.7708 12.009 19.7041C11.8517 19.6374 11.7099 19.5397 11.592 19.4169C11.4742 19.2941 11.3828 19.1488 11.3236 18.9899C11.2643 18.831 11.2384 18.6618 11.2474 18.4927C11.2715 18.1673 11.4207 17.8634 11.6644 17.6436C11.908 17.4238 12.2275 17.3049 12.5571 17.3114C13.9795 17.3188 15.3705 17.7263 16.568 18.4865C16.6628 18.5483 16.7727 18.5836 16.8861 18.5886C16.9995 18.5936 17.1122 18.5682 17.2122 18.515C17.3122 18.4618 17.3959 18.3829 17.4543 18.2865C17.5127 18.1901 17.5436 18.0799 17.544 17.9675V4.14117C17.5445 3.97754 17.4801 3.82025 17.3645 3.70325C16.0715 2.43661 14.3257 1.72645 12.5067 1.72717ZM13.766 9.20761C13.766 10.6956 13.169 12.1226 12.1062 13.1747C11.0435 14.2268 9.60205 14.8179 8.09909 14.8179H7.46943C7.13544 14.8179 6.81513 14.6866 6.57896 14.4528C6.3428 14.219 6.21012 13.9018 6.21012 13.5712C6.21012 13.2405 6.3428 12.9234 6.57896 12.6896C6.81513 12.4558 7.13544 12.3245 7.46943 12.3245H8.09909C8.51253 12.3245 8.92192 12.2438 9.30389 12.0872C9.68586 11.9306 10.0329 11.701 10.3253 11.4116C10.6176 11.1221 10.8495 10.7785 11.0077 10.4004C11.1659 10.0222 11.2474 9.61692 11.2474 9.20761V8.58424C11.2474 8.25358 11.3801 7.93647 11.6162 7.70266C11.8524 7.46885 12.1727 7.3375 12.5067 7.3375C12.8407 7.3375 13.161 7.46885 13.3972 7.70266C13.6333 7.93647 13.766 8.25358 13.766 8.58424V9.20761Z" fill="white"/>
<path d="M55.0611 17.9348H51.1651L51.152 15.5192H54.602C55.1355 15.5192 55.5902 15.4153 55.9662 15.2075C56.3423 14.9997 56.6265 14.6967 56.8189 14.2985C57.0201 13.9002 57.1206 13.4197 57.1206 12.8569C57.1206 12.2335 57.0332 11.7271 56.8583 11.3375C56.6834 10.9392 56.4079 10.6491 56.0318 10.4673C55.6645 10.2855 55.1923 10.1946 54.6151 10.1946H52.1096V26.4542H48.922V7.54529H54.6151C55.5071 7.54529 56.3029 7.64918 57.0026 7.85697C57.7109 8.0561 58.31 8.36346 58.7997 8.77904C59.2894 9.19462 59.6611 9.72708 59.9147 10.3764C60.1771 11.0171 60.3083 11.779 60.3083 12.6621C60.3083 13.4327 60.1421 14.1426 59.8098 14.792C59.4775 15.4326 58.9834 15.9608 58.3275 16.3764C57.6803 16.7833 56.8758 17.0257 55.9138 17.1036L55.0611 17.9348ZM54.9431 26.4542H50.1157L51.5849 23.8178H54.9431C55.5115 23.8178 55.9794 23.6966 56.3467 23.4542C56.714 23.2118 56.9894 22.8741 57.1731 22.4412C57.3567 22.0083 57.4486 21.5018 57.4486 20.9218C57.4486 20.3157 57.3699 19.7876 57.2124 19.3374C57.055 18.8871 56.8014 18.5408 56.4516 18.2984C56.1018 18.056 55.6383 17.9348 55.0611 17.9348H51.8472L51.8735 15.5192H55.9794L56.714 16.4413C57.6322 16.4586 58.3799 16.6837 58.9571 17.1166C59.5343 17.5408 59.9585 18.0906 60.2296 18.7659C60.5007 19.4413 60.6362 20.1642 60.6362 20.9347C60.6362 22.1382 60.4088 23.1512 59.9541 23.9737C59.4993 24.7875 58.8478 25.4066 57.9995 25.8308C57.16 26.2464 56.1412 26.4542 54.9431 26.4542Z" fill="white"/>
<path d="M66.6311 15.1166V26.4542H63.5746V12.4024H66.4868L66.6311 15.1166ZM70.0548 12.3115L70.0417 15.2984C69.8668 15.2552 69.6788 15.2292 69.4776 15.2205C69.2853 15.2032 69.0929 15.1945 68.9005 15.1945C68.4807 15.1945 68.1178 15.2681 67.8117 15.4153C67.5056 15.5625 67.2476 15.7746 67.0377 16.0517C66.8278 16.3287 66.6617 16.6621 66.5392 17.0517C66.4256 17.4413 66.3556 17.8828 66.3294 18.3763L65.6735 18.4023C65.6735 17.5192 65.7434 16.701 65.8834 15.9478C66.0233 15.1859 66.2332 14.5236 66.513 13.9608C66.8016 13.3894 67.1602 12.9435 67.5887 12.6232C68.0172 12.3028 68.5157 12.1426 69.0841 12.1426C69.2415 12.1426 69.4208 12.16 69.6219 12.1946C69.8231 12.2292 69.9674 12.2682 70.0548 12.3115Z" fill="white"/>
<path d="M78.2666 23.5971V16.5971C78.2666 16.1123 78.1967 15.7227 78.0567 15.4283C77.9255 15.1339 77.7288 14.9218 77.4664 14.792C77.2128 14.6534 76.8936 14.5842 76.5088 14.5842C76.1065 14.5842 75.7655 14.6664 75.4856 14.8309C75.2145 14.9954 75.009 15.2205 74.8691 15.5062C74.7292 15.7833 74.6592 16.1036 74.6592 16.4673H71.6027C71.6027 15.9045 71.7164 15.3634 71.9438 14.8439C72.1799 14.3244 72.5166 13.8612 72.9539 13.4543C73.3911 13.0474 73.9202 12.727 74.5411 12.4933C75.1621 12.2595 75.8529 12.1426 76.6138 12.1426C77.5233 12.1426 78.3322 12.2942 79.0406 12.5972C79.7489 12.8915 80.3043 13.3721 80.7065 14.0387C81.1176 14.6967 81.3231 15.5625 81.3231 16.6361V23.1945C81.3231 23.8438 81.3624 24.4239 81.4411 24.9347C81.5286 25.4369 81.6466 25.8741 81.7953 26.2464V26.4542H78.6864C78.5465 26.1165 78.4415 25.6836 78.3716 25.1555C78.3016 24.6273 78.2666 24.1079 78.2666 23.5971ZM78.6733 17.8958L78.6864 19.8568H77.2172C76.7799 19.8568 76.3864 19.9174 76.0366 20.0386C75.6868 20.1512 75.3894 20.3157 75.1446 20.5322C74.9084 20.7399 74.7248 20.9953 74.5936 21.2984C74.4712 21.6014 74.41 21.9347 74.41 22.2984C74.41 22.7399 74.4712 23.0992 74.5936 23.3763C74.7248 23.6533 74.9128 23.8611 75.1577 23.9996C75.4113 24.1295 75.7174 24.1944 76.0759 24.1944C76.5657 24.1944 76.9898 24.0906 77.3484 23.8828C77.7157 23.6663 77.9955 23.4066 78.1879 23.1035C78.389 22.8005 78.4678 22.5235 78.424 22.2724L79.1193 23.5321C79.0493 23.8611 78.9181 24.2074 78.7257 24.5711C78.5421 24.9347 78.3016 25.281 78.0043 25.61C77.7069 25.939 77.3484 26.2074 76.9286 26.4152C76.5088 26.6143 76.0235 26.7139 75.4725 26.7139C74.6767 26.7139 73.9683 26.5494 73.3474 26.2204C72.7265 25.8914 72.2368 25.4195 71.8782 24.8048C71.5284 24.1815 71.3535 23.4369 71.3535 22.5711C71.3535 21.8698 71.4716 21.2334 71.7077 20.662C71.9438 20.0906 72.2936 19.6014 72.7571 19.1945C73.2206 18.7789 73.8022 18.4586 74.5018 18.2335C75.2102 18.0084 76.0366 17.8958 76.9811 17.8958H78.6733Z" fill="white"/>
<path d="M87.6984 12.4024V26.4542H84.6419V12.4024H87.6984ZM84.4845 8.72709C84.4845 8.24225 84.6331 7.83966 84.9305 7.51931C85.2278 7.19031 85.6432 7.02581 86.1767 7.02581C86.7101 7.02581 87.1255 7.19031 87.4229 7.51931C87.7202 7.83966 87.8689 8.24225 87.8689 8.72709C87.8689 9.19462 87.7202 9.58855 87.4229 9.9089C87.1255 10.2292 86.7101 10.3894 86.1767 10.3894C85.6432 10.3894 85.2278 10.2292 84.9305 9.9089C84.6331 9.58855 84.4845 9.19462 84.4845 8.72709Z" fill="white"/>
<path d="M93.9818 15.4023V26.4542H90.9254V12.4024H93.7982L93.9818 15.4023ZM93.4309 18.9218H92.4601C92.4514 17.9088 92.5607 16.9867 92.7881 16.1556C93.0155 15.3244 93.339 14.6101 93.7588 14.0127C94.1873 13.4153 94.6945 12.9565 95.2805 12.6361C95.8752 12.3071 96.5354 12.1426 97.2613 12.1426C97.821 12.1426 98.3326 12.2379 98.7961 12.4283C99.2683 12.6102 99.6706 12.9089 100.003 13.3244C100.335 13.74 100.589 14.2811 100.764 14.9478C100.947 15.6145 101.039 16.4283 101.039 17.3893V26.4542H97.9828V17.3634C97.9828 16.7054 97.9084 16.1859 97.7598 15.8049C97.6198 15.4153 97.4099 15.1383 97.1301 14.9738C96.8503 14.8006 96.4961 14.714 96.0676 14.714C95.674 14.714 95.3111 14.8266 94.9788 15.0517C94.6552 15.2681 94.3753 15.5712 94.1392 15.9608C93.9119 16.3417 93.7369 16.7876 93.6145 17.2984C93.4921 17.8006 93.4309 18.3417 93.4309 18.9218Z" fill="white"/>
<path d="M109.146 24.1815C109.54 24.1815 109.889 24.0992 110.195 23.9347C110.51 23.7702 110.76 23.5148 110.943 23.1685C111.127 22.8135 111.227 22.3546 111.245 21.7919H114.118C114.1 22.7875 113.868 23.6577 113.422 24.4022C112.976 25.1382 112.382 25.7096 111.638 26.1165C110.904 26.5148 110.086 26.7139 109.185 26.7139C108.25 26.7139 107.432 26.5667 106.732 26.2723C106.042 25.9693 105.469 25.5321 105.014 24.9607C104.559 24.3892 104.218 23.6966 103.991 22.8828C103.772 22.0603 103.663 21.1209 103.663 20.0646V18.7919C103.663 17.7443 103.772 16.8092 103.991 15.9867C104.218 15.1642 104.559 14.4673 105.014 13.8959C105.469 13.3244 106.042 12.8915 106.732 12.5972C107.423 12.2942 108.237 12.1426 109.172 12.1426C110.169 12.1426 111.031 12.3504 111.757 12.766C112.491 13.1729 113.064 13.7703 113.475 14.5582C113.886 15.3461 114.1 16.3114 114.118 17.4543H111.245C111.227 16.8482 111.136 16.3417 110.969 15.9348C110.803 15.5192 110.567 15.2075 110.261 14.9997C109.964 14.792 109.588 14.6881 109.133 14.6881C108.634 14.6881 108.223 14.7833 107.9 14.9738C107.585 15.1556 107.34 15.424 107.165 15.779C106.999 16.1339 106.881 16.5668 106.811 17.0776C106.75 17.5798 106.719 18.1512 106.719 18.7919V20.0646C106.719 20.7226 106.75 21.307 106.811 21.8178C106.872 22.32 106.986 22.7486 107.152 23.1035C107.327 23.4585 107.576 23.7269 107.9 23.9087C108.223 24.0906 108.639 24.1815 109.146 24.1815Z" fill="white"/>
<path d="M119.549 15.1166V26.4542H116.492V12.4024H119.404L119.549 15.1166ZM122.972 12.3115L122.959 15.2984C122.784 15.2552 122.596 15.2292 122.395 15.2205C122.203 15.2032 122.01 15.1945 121.818 15.1945C121.398 15.1945 121.035 15.2681 120.729 15.4153C120.423 15.5625 120.165 15.7746 119.955 16.0517C119.745 16.3287 119.579 16.6621 119.457 17.0517C119.343 17.4413 119.273 17.8828 119.247 18.3763L118.591 18.4023C118.591 17.5192 118.661 16.701 118.801 15.9478C118.941 15.1859 119.151 14.5236 119.43 13.9608C119.719 13.3894 120.078 12.9435 120.506 12.6232C120.935 12.3028 121.433 12.1426 122.002 12.1426C122.159 12.1426 122.338 12.16 122.539 12.1946C122.741 12.2292 122.885 12.2682 122.972 12.3115Z" fill="white"/>
<path d="M131.184 23.5971V16.5971C131.184 16.1123 131.114 15.7227 130.974 15.4283C130.843 15.1339 130.646 14.9218 130.384 14.792C130.13 14.6534 129.811 14.5842 129.426 14.5842C129.024 14.5842 128.683 14.6664 128.403 14.8309C128.132 14.9954 127.926 15.2205 127.787 15.5062C127.647 15.7833 127.577 16.1036 127.577 16.4673H124.52C124.52 15.9045 124.634 15.3634 124.861 14.8439C125.097 14.3244 125.434 13.8612 125.871 13.4543C126.309 13.0474 126.838 12.727 127.459 12.4933C128.08 12.2595 128.77 12.1426 129.531 12.1426C130.441 12.1426 131.25 12.2942 131.958 12.5972C132.666 12.8915 133.222 13.3721 133.624 14.0387C134.035 14.6967 134.241 15.5625 134.241 16.6361V23.1945C134.241 23.8438 134.28 24.4239 134.359 24.9347C134.446 25.4369 134.564 25.8741 134.713 26.2464V26.4542H131.604C131.464 26.1165 131.359 25.6836 131.289 25.1555C131.219 24.6273 131.184 24.1079 131.184 23.5971ZM131.591 17.8958L131.604 19.8568H130.135C129.697 19.8568 129.304 19.9174 128.954 20.0386C128.604 20.1512 128.307 20.3157 128.062 20.5322C127.826 20.7399 127.642 20.9953 127.511 21.2984C127.389 21.6014 127.327 21.9347 127.327 22.2984C127.327 22.7399 127.389 23.0992 127.511 23.3763C127.642 23.6533 127.83 23.8611 128.075 23.9996C128.329 24.1295 128.635 24.1944 128.993 24.1944C129.483 24.1944 129.907 24.0906 130.266 23.8828C130.633 23.6663 130.913 23.4066 131.105 23.1035C131.307 22.8005 131.385 22.5235 131.341 22.2724L132.037 23.5321C131.967 23.8611 131.836 24.2074 131.643 24.5711C131.46 24.9347 131.219 25.281 130.922 25.61C130.624 25.939 130.266 26.2074 129.846 26.4152C129.426 26.6143 128.941 26.7139 128.39 26.7139C127.594 26.7139 126.886 26.5494 126.265 26.2204C125.644 25.8914 125.154 25.4195 124.796 24.8048C124.446 24.1815 124.271 23.4369 124.271 22.5711C124.271 21.8698 124.389 21.2334 124.625 20.662C124.861 20.0906 125.211 19.6014 125.675 19.1945C126.138 18.7789 126.72 18.4586 127.419 18.2335C128.128 18.0084 128.954 17.8958 129.899 17.8958H131.591Z" fill="white"/>
<path d="M146.755 23.9087V26.4542H137.94V23.9087H146.755ZM146.584 14.3764L138.963 26.4542H136.982V24.4022L144.564 12.4024H146.584V14.3764ZM145.43 12.4024V14.9608H137.074V12.4024H145.43Z" fill="white"/>
<path d="M154.586 26.7139C153.668 26.7139 152.85 26.5797 152.133 26.3113C151.416 26.0343 150.808 25.6273 150.31 25.0905C149.811 24.5451 149.431 23.8784 149.169 23.0906C148.906 22.294 148.775 21.372 148.775 20.3244V18.9737C148.775 17.7876 148.911 16.766 149.182 15.9088C149.462 15.043 149.846 14.3331 150.336 13.779C150.826 13.2249 151.403 12.8136 152.068 12.5452C152.741 12.2768 153.471 12.1426 154.258 12.1426C155.15 12.1426 155.924 12.2855 156.58 12.5712C157.236 12.8569 157.774 13.2855 158.194 13.8569C158.622 14.4283 158.937 15.1339 159.138 15.9738C159.348 16.8136 159.453 17.7789 159.453 18.8698V20.3893H150.244V18.1036H156.436V17.7789C156.418 17.1383 156.34 16.5885 156.2 16.1296C156.06 15.6621 155.833 15.3071 155.518 15.0647C155.212 14.8136 154.787 14.6881 154.245 14.6881C153.852 14.6881 153.502 14.7617 153.196 14.9088C152.89 15.056 152.636 15.2941 152.435 15.6231C152.243 15.9521 152.094 16.3937 151.989 16.9478C151.884 17.4932 151.832 18.1685 151.832 18.9737V20.3244C151.832 21.0257 151.893 21.6187 152.015 22.1036C152.146 22.5884 152.339 22.9867 152.592 23.2984C152.846 23.6014 153.152 23.8265 153.511 23.9737C153.878 24.1122 154.302 24.1815 154.783 24.1815C155.491 24.1815 156.099 24.0516 156.606 23.7919C157.122 23.5235 157.568 23.1771 157.945 22.7529L159.296 24.61C159.042 24.9477 158.701 25.281 158.272 25.61C157.844 25.9304 157.324 26.1944 156.711 26.4022C156.108 26.61 155.4 26.7139 154.586 26.7139Z" fill="white"/>
</svg>
