<svg width="160" height="34" viewBox="0 0 160 34" fill="none" xmlns="http://www.w3.org/2000/svg">
<path d="M28.1782 7.61111L15.8262 0.300713C15.4962 0.103465 15.1253 0 14.7482 0C14.3711 0 14.0003 0.103465 13.6702 0.300713L1.31822 7.61415C0.965466 7.82291 0.671004 8.13029 0.46558 8.50419C0.260155 8.87808 0.151303 9.30477 0.150391 9.7397V24.2603C0.151303 24.6952 0.260155 25.1219 0.46558 25.4958C0.671004 25.8697 0.965466 26.1771 1.31822 26.3859L13.6702 33.6993C14.0003 33.8965 14.3711 34 14.7482 34C15.1253 34 15.4962 33.8965 15.8262 33.6993L28.1782 26.3859C28.531 26.1771 28.8254 25.8697 29.0308 25.4958C29.2363 25.1219 29.3451 24.6952 29.346 24.2603V9.74122C29.3459 9.30551 29.2374 8.87787 29.0319 8.50311C28.8265 8.12834 28.5316 7.82025 28.1782 7.61111ZM14.7482 15.7869L3.46999 9.10659L14.7482 2.42627L26.0264 9.10659L14.7482 15.7869ZM15.8711 30.9148V17.8867L27.1002 11.2397V24.2603L15.8711 30.9148Z" fill="white"/>
<path d="M43.839 28.6155C42.4177 28.6155 41.2998 28.3133 40.4853 27.7088C39.6868 27.1044 39.1278 26.2841 38.8084 25.2479C38.489 24.1944 38.3293 22.9855 38.3293 21.6212V14.1348C38.3293 12.7014 38.489 11.4579 38.8084 10.4045C39.1278 9.35101 39.6868 8.53932 40.4853 7.96942C41.2998 7.39951 42.4177 7.11456 43.839 7.11456C45.1806 7.11456 46.2266 7.36497 46.9772 7.8658C47.7438 8.34935 48.2868 9.04878 48.6062 9.96408C48.9256 10.8794 49.0853 11.9415 49.0853 13.1504V14.9119H45.6836V13.0986C45.6836 12.5114 45.6517 11.976 45.5878 11.4925C45.5399 11.0089 45.3882 10.629 45.1326 10.3527C44.8931 10.0591 44.4699 9.91228 43.863 9.91228C43.2561 9.91228 42.809 10.0677 42.5215 10.3786C42.25 10.6721 42.0743 11.078 41.9945 11.5961C41.9146 12.0969 41.8747 12.6668 41.8747 13.3058V22.4243C41.8747 23.1841 41.9306 23.8145 42.0424 24.3153C42.1542 24.7989 42.3538 25.1702 42.6413 25.4292C42.9447 25.671 43.352 25.7919 43.863 25.7919C44.4539 25.7919 44.8691 25.6451 45.1087 25.3515C45.3642 25.0407 45.5239 24.6348 45.5878 24.134C45.6517 23.6332 45.6836 23.0719 45.6836 22.4502V20.5591H49.0853V22.2429C49.0853 23.4864 48.9336 24.5916 48.6301 25.5588C48.3267 26.5086 47.7917 27.2598 47.0251 27.8125C46.2745 28.3478 45.2125 28.6155 43.839 28.6155Z" fill="white"/>
<path d="M54.021 28.5637C53.3982 28.5637 52.8632 28.391 52.416 28.0456C51.9688 27.6829 51.6255 27.2339 51.3859 26.6986C51.1464 26.1459 51.0266 25.576 51.0266 24.9888C51.0266 24.0563 51.1863 23.2705 51.5057 22.6315C51.8251 21.9925 52.2483 21.4572 52.7753 21.0254C53.3024 20.5937 53.9013 20.2224 54.572 19.9115C55.2428 19.5834 55.9215 19.2898 56.6082 19.0308V17.7355C56.6082 17.3038 56.5763 16.9411 56.5124 16.6475C56.4645 16.3539 56.3607 16.1294 56.201 15.974C56.0572 15.8186 55.8257 15.7408 55.5063 15.7408C55.2348 15.7408 55.0112 15.8099 54.8355 15.9481C54.6758 16.0862 54.556 16.2848 54.4762 16.5439C54.4123 16.7857 54.3724 17.0706 54.3564 17.3988L54.3085 18.3054L51.2183 18.1759C51.2662 16.4489 51.6574 15.1796 52.3921 14.3679C53.1427 13.5389 54.2766 13.1245 55.7937 13.1245C57.1831 13.1245 58.1893 13.5389 58.8121 14.3679C59.4509 15.1968 59.7703 16.3194 59.7703 17.7355V24.6521C59.7703 25.2047 59.7783 25.7055 59.7943 26.1546C59.8262 26.6036 59.8582 27.0094 59.8901 27.3721C59.938 27.7348 59.9779 28.0542 60.0099 28.3306H57.0873C57.0394 27.9852 56.9755 27.5966 56.8957 27.1648C56.8318 26.7158 56.7839 26.3877 56.7519 26.1805C56.5922 26.7849 56.2888 27.3375 55.8416 27.8384C55.3945 28.3219 54.7876 28.5637 54.021 28.5637ZM55.2188 25.9473C55.4264 25.9473 55.6181 25.8955 55.7937 25.7919C55.9854 25.671 56.1531 25.5328 56.2968 25.3774C56.4405 25.222 56.5443 25.0838 56.6082 24.9629V20.7923C56.2569 21.0168 55.9215 21.2413 55.6021 21.4658C55.2987 21.6903 55.0272 21.9407 54.7876 22.217C54.564 22.4761 54.3883 22.761 54.2606 23.0719C54.1488 23.3828 54.0929 23.7454 54.0929 24.1599C54.0929 24.7125 54.1887 25.1529 54.3804 25.481C54.588 25.7919 54.8675 25.9473 55.2188 25.9473Z" fill="white"/>
<path d="M65.9304 28.5637C64.7646 28.5637 63.8064 28.2269 63.0558 27.5534C62.3052 26.8799 61.7702 25.8955 61.4508 24.6003L63.8703 23.59C64.0619 24.4017 64.3174 25.0234 64.6368 25.4551C64.9562 25.8869 65.3715 26.1028 65.8825 26.1028C66.2658 26.1028 66.5533 25.9991 66.7449 25.7919C66.9365 25.5847 67.0324 25.2997 67.0324 24.937C67.0324 24.5226 66.9126 24.1513 66.673 23.8231C66.4495 23.4777 66.0582 23.0546 65.4992 22.5538L63.8223 21.0254C63.2155 20.4555 62.7204 19.877 62.3371 19.2898C61.9698 18.6854 61.7861 17.9341 61.7861 17.0361C61.7861 16.2244 61.9538 15.5336 62.2892 14.9637C62.6405 14.3765 63.1117 13.9275 63.7026 13.6167C64.3094 13.2885 64.9802 13.1245 65.7148 13.1245C66.8327 13.1245 67.7271 13.4871 68.3978 14.2125C69.0845 14.9205 69.5237 15.8531 69.7154 17.0102L67.5833 17.9946C67.5035 17.5801 67.3837 17.2001 67.224 16.8548C67.0803 16.4921 66.8886 16.1985 66.6491 15.974C66.4095 15.7495 66.13 15.6372 65.8106 15.6372C65.4753 15.6372 65.2038 15.7495 64.9962 15.974C64.8045 16.1985 64.7087 16.4834 64.7087 16.8288C64.7087 17.1224 64.8205 17.4247 65.0441 17.7355C65.2836 18.0464 65.619 18.4004 66.0502 18.7976L67.751 20.4555C68.1183 20.8009 68.4697 21.1722 68.8051 21.5694C69.1404 21.9666 69.4199 22.4156 69.6435 22.9165C69.8671 23.4 69.9789 23.9613 69.9789 24.6003C69.9789 25.4638 69.7952 26.1891 69.4279 26.7763C69.0766 27.3635 68.5895 27.8125 67.9666 28.1233C67.3598 28.4169 66.681 28.5637 65.9304 28.5637Z" fill="white"/>
<path d="M75.9292 28.5637C74.8592 28.5637 73.9968 28.3478 73.342 27.9161C72.7032 27.4671 72.2321 26.8367 71.9286 26.025C71.6412 25.1961 71.4974 24.2203 71.4974 23.0978V18.5904C71.4974 17.4333 71.6412 16.4489 71.9286 15.6372C72.2321 14.8255 72.7112 14.2038 73.366 13.7721C74.0207 13.3403 74.8751 13.1245 75.9292 13.1245C76.9193 13.1245 77.7258 13.2972 78.3487 13.6426C78.9875 13.9707 79.4506 14.4801 79.7381 15.1709C80.0255 15.8445 80.1693 16.6993 80.1693 17.7355V18.9789H77.103V17.6578C77.103 17.1397 77.0631 16.7339 76.9832 16.4403C76.9193 16.1294 76.7996 15.9135 76.6239 15.7927C76.4482 15.6545 76.2166 15.5854 75.9292 15.5854C75.6417 15.5854 75.4101 15.6718 75.2345 15.8445C75.0588 15.9999 74.931 16.2589 74.8512 16.6216C74.7873 16.9843 74.7554 17.4851 74.7554 18.1241V23.6159C74.7554 24.583 74.8512 25.2393 75.0428 25.5847C75.2345 25.9128 75.5379 26.0768 75.9531 26.0768C76.2725 26.0768 76.5121 25.9991 76.6718 25.8437C76.8475 25.6883 76.9593 25.4638 77.0072 25.1702C77.0711 24.8593 77.103 24.488 77.103 24.0563V22.4502H80.1693V23.8749C80.1693 24.8766 80.0176 25.7315 79.7141 26.4395C79.4267 27.1476 78.9635 27.6829 78.3247 28.0456C77.7019 28.391 76.9034 28.5637 75.9292 28.5637Z" fill="white"/>
<path d="M84.9946 28.5637C84.3718 28.5637 83.8368 28.391 83.3896 28.0456C82.9424 27.6829 82.5991 27.2339 82.3595 26.6986C82.12 26.1459 82.0002 25.576 82.0002 24.9888C82.0002 24.0563 82.1599 23.2705 82.4793 22.6315C82.7987 21.9925 83.2219 21.4572 83.7489 21.0254C84.2759 20.5937 84.8748 20.2224 85.5456 19.9115C86.2163 19.5834 86.8951 19.2898 87.5818 19.0308V17.7355C87.5818 17.3038 87.5499 16.9411 87.486 16.6475C87.4381 16.3539 87.3343 16.1294 87.1746 15.974C87.0308 15.8186 86.7993 15.7408 86.4798 15.7408C86.2084 15.7408 85.9848 15.8099 85.8091 15.9481C85.6494 16.0862 85.5296 16.2848 85.4498 16.5439C85.3859 16.7857 85.346 17.0706 85.33 17.3988L85.2821 18.3054L82.1918 18.1759C82.2397 16.4489 82.631 15.1796 83.3656 14.3679C84.1162 13.5389 85.2501 13.1245 86.7673 13.1245C88.1567 13.1245 89.1629 13.5389 89.7857 14.3679C90.4245 15.1968 90.7439 16.3194 90.7439 17.7355V24.6521C90.7439 25.2047 90.7519 25.7055 90.7679 26.1546C90.7998 26.6036 90.8317 27.0094 90.8637 27.3721C90.9116 27.7348 90.9515 28.0542 90.9835 28.3306H88.0609C88.013 27.9852 87.9491 27.5966 87.8693 27.1648C87.8054 26.7158 87.7575 26.3877 87.7255 26.1805C87.5658 26.7849 87.2624 27.3375 86.8152 27.8384C86.3681 28.3219 85.7612 28.5637 84.9946 28.5637ZM86.1924 25.9473C86.4 25.9473 86.5916 25.8955 86.7673 25.7919C86.959 25.671 87.1266 25.5328 87.2704 25.3774C87.4141 25.222 87.5179 25.0838 87.5818 24.9629V20.7923C87.2304 21.0168 86.8951 21.2413 86.5757 21.4658C86.2722 21.6903 86.0007 21.9407 85.7612 22.217C85.5376 22.4761 85.3619 22.761 85.2342 23.0719C85.1224 23.3828 85.0665 23.7454 85.0665 24.1599C85.0665 24.7125 85.1623 25.1529 85.3539 25.481C85.5616 25.7919 85.841 25.9473 86.1924 25.9473Z" fill="white"/>
<path d="M96.2572 28.5637C95.1553 28.5637 94.3168 28.1406 93.7419 27.2944C93.1829 26.4481 92.9034 25.0925 92.9034 23.2273V18.6422C92.9034 17.606 93.0073 16.6734 93.2149 15.8445C93.4385 15.0155 93.7898 14.3593 94.2689 13.8757C94.748 13.3749 95.3948 13.1245 96.2093 13.1245C96.7044 13.1245 97.1595 13.2367 97.5747 13.4612C98.0059 13.6685 98.3972 13.9448 98.7486 14.2902V7.3477H102.007V28.3306H98.7486V27.2685C98.3812 27.6657 97.99 27.9852 97.5747 28.2269C97.1595 28.4515 96.7203 28.5637 96.2572 28.5637ZM97.455 26.1287C97.6306 26.1287 97.8303 26.0855 98.0539 25.9991C98.2774 25.9128 98.509 25.7919 98.7486 25.6365V16.0258C98.5569 15.8876 98.3493 15.7754 98.1257 15.689C97.9021 15.5854 97.6706 15.5336 97.431 15.5336C96.9679 15.5336 96.6405 15.7668 96.4488 16.233C96.2732 16.6821 96.1853 17.2347 96.1853 17.8909V23.4864C96.1853 23.9872 96.2173 24.4362 96.2812 24.8334C96.345 25.2306 96.4648 25.5501 96.6405 25.7919C96.8321 26.0164 97.1036 26.1287 97.455 26.1287Z" fill="white"/>
<path d="M108.658 28.5637C107.62 28.5637 106.773 28.3565 106.119 27.942C105.464 27.5102 104.977 26.8885 104.657 26.0768C104.354 25.2479 104.202 24.2549 104.202 23.0978V18.5904C104.202 17.3988 104.354 16.3971 104.657 15.5854C104.977 14.7737 105.464 14.1607 106.119 13.7462C106.789 13.3317 107.636 13.1245 108.658 13.1245C109.76 13.1245 110.614 13.349 111.221 13.798C111.844 14.247 112.283 14.9033 112.539 15.7668C112.81 16.613 112.946 17.6492 112.946 18.8753V20.9995H107.436V23.9527C107.436 24.4362 107.476 24.8334 107.556 25.1443C107.652 25.4551 107.795 25.6796 107.987 25.8178C108.179 25.956 108.41 26.025 108.682 26.025C108.969 26.025 109.201 25.956 109.377 25.8178C109.552 25.6624 109.68 25.4465 109.76 25.1702C109.84 24.8766 109.88 24.5139 109.88 24.0822V22.8388H112.922V23.849C112.922 25.3688 112.571 26.5345 111.868 27.3462C111.165 28.1579 110.095 28.5637 108.658 28.5637ZM107.436 19.2639H109.88V17.8391C109.88 17.321 109.84 16.9066 109.76 16.5957C109.68 16.2676 109.552 16.0344 109.377 15.8963C109.201 15.7408 108.953 15.6631 108.634 15.6631C108.346 15.6631 108.115 15.7408 107.939 15.8963C107.764 16.0517 107.636 16.3108 107.556 16.6734C107.476 17.0361 107.436 17.5542 107.436 18.2277V19.2639Z" fill="white"/>
<path d="M120.259 28.6155C119.093 28.6155 118.119 28.3737 117.337 27.8902C116.554 27.3894 115.963 26.664 115.564 25.7142C115.165 24.7643 114.941 23.5986 114.893 22.217L117.936 21.5694C117.967 22.3811 118.055 23.0978 118.199 23.7195C118.359 24.3412 118.59 24.8248 118.894 25.1702C119.213 25.4983 119.628 25.6624 120.139 25.6624C120.714 25.6624 121.122 25.481 121.361 25.1184C121.601 24.7384 121.72 24.2635 121.72 23.6936C121.72 22.7783 121.529 22.0271 121.146 21.4399C120.762 20.8527 120.251 20.2655 119.612 19.6784L117.169 17.3469C116.482 16.708 115.931 15.9999 115.516 15.2228C115.117 14.4283 114.917 13.4526 114.917 12.2955C114.917 10.6376 115.364 9.35964 116.259 8.46161C117.153 7.56358 118.375 7.11456 119.924 7.11456C120.834 7.11456 121.593 7.26999 122.2 7.58085C122.806 7.87443 123.286 8.28891 123.637 8.82428C124.004 9.35964 124.276 9.97272 124.451 10.6635C124.627 11.337 124.739 12.0537 124.787 12.8136L121.768 13.3835C121.736 12.7273 121.665 12.1401 121.553 11.622C121.457 11.1039 121.273 10.6981 121.002 10.4045C120.746 10.1109 120.363 9.96408 119.852 9.96408C119.325 9.96408 118.918 10.1541 118.63 10.534C118.359 10.8967 118.223 11.3543 118.223 11.9069C118.223 12.615 118.359 13.2022 118.63 13.6685C118.902 14.1175 119.293 14.5838 119.804 15.0673L122.224 17.3728C123.022 18.0982 123.701 18.953 124.26 19.9374C124.835 20.9045 125.122 22.0789 125.122 23.4605C125.122 24.4621 124.915 25.3515 124.499 26.1287C124.1 26.9058 123.533 27.5189 122.798 27.9679C122.08 28.3996 121.233 28.6155 120.259 28.6155Z" fill="white"/>
<path d="M130.995 28.5119C130.116 28.5119 129.422 28.3565 128.91 28.0456C128.415 27.7348 128.064 27.2857 127.856 26.6986C127.649 26.1114 127.545 25.412 127.545 24.6003V15.689H126.156V13.3576H127.545V8.87608H130.827V13.3576H132.935V15.689H130.827V24.2894C130.827 24.8075 130.931 25.1788 131.138 25.4033C131.346 25.6106 131.657 25.7142 132.073 25.7142C132.248 25.7142 132.416 25.7055 132.576 25.6883C132.751 25.671 132.919 25.6537 133.079 25.6365V28.3306C132.807 28.3651 132.488 28.3996 132.12 28.4342C131.769 28.486 131.394 28.5119 130.995 28.5119Z" fill="white"/>
<path d="M135.044 32.3976V29.8589C135.603 29.8589 136.058 29.8244 136.409 29.7553C136.761 29.6862 137.016 29.5654 137.176 29.3927C137.336 29.22 137.415 28.9782 137.415 28.6673C137.415 28.4428 137.359 28.0888 137.248 27.6052C137.152 27.1217 137.04 26.5949 136.912 26.025L133.87 13.3576H137.032L138.829 23.2273L140.386 13.3576H143.524L140.29 28.9264C140.114 29.8071 139.819 30.4979 139.404 30.9988C138.988 31.4996 138.469 31.8536 137.847 32.0608C137.224 32.2854 136.497 32.3976 135.667 32.3976H135.044Z" fill="white"/>
<path d="M145.246 28.3306V7.3477H148.48V28.3306H145.246Z" fill="white"/>
<path d="M155.259 28.5637C154.221 28.5637 153.374 28.3565 152.719 27.942C152.065 27.5102 151.577 26.8885 151.258 26.0768C150.955 25.2479 150.803 24.2549 150.803 23.0978V18.5904C150.803 17.3988 150.955 16.3971 151.258 15.5854C151.577 14.7737 152.065 14.1607 152.719 13.7462C153.39 13.3317 154.237 13.1245 155.259 13.1245C156.361 13.1245 157.215 13.349 157.822 13.798C158.445 14.247 158.884 14.9033 159.139 15.7668C159.411 16.613 159.547 17.6492 159.547 18.8753V20.9995H154.037V23.9527C154.037 24.4362 154.077 24.8334 154.157 25.1443C154.252 25.4551 154.396 25.6796 154.588 25.8178C154.779 25.956 155.011 26.025 155.283 26.025C155.57 26.025 155.802 25.956 155.977 25.8178C156.153 25.6624 156.281 25.4465 156.361 25.1702C156.44 24.8766 156.48 24.5139 156.48 24.0822V22.8388H159.523V23.849C159.523 25.3688 159.171 26.5345 158.469 27.3462C157.766 28.1579 156.696 28.5637 155.259 28.5637ZM154.037 19.2639H156.48V17.8391C156.48 17.321 156.44 16.9066 156.361 16.5957C156.281 16.2676 156.153 16.0344 155.977 15.8963C155.802 15.7408 155.554 15.6631 155.235 15.6631C154.947 15.6631 154.716 15.7408 154.54 15.8963C154.364 16.0517 154.237 16.3108 154.157 16.6734C154.077 17.0361 154.037 17.5542 154.037 18.2277V19.2639Z" fill="white"/>
</svg>
