<svg width="40" height="40" viewBox="0 0 40 40" fill="none" xmlns="http://www.w3.org/2000/svg">
<path d="M3.8673 18.0531C4.23642 14.9579 5.50242 12.0381 7.50949 9.65308C7.73156 9.38529 8.00709 9.16679 8.31843 9.01157C8.62978 8.85635 8.9701 8.76782 9.31762 8.75164C9.66514 8.73546 10.0122 8.79199 10.3366 8.91762C10.6611 9.04325 10.9557 9.2352 11.2017 9.48121L15.5251 13.8968C15.9415 14.3122 16.1966 14.8621 16.245 15.4483C16.2934 16.0345 16.1318 16.6188 15.7892 17.0968C15.5296 17.465 15.3342 17.8744 15.211 18.3078C15.1719 18.4356 15.0929 18.5476 14.9854 18.6272C14.878 18.7067 14.7479 18.7498 14.6142 18.75H4.48917C4.40095 18.7501 4.31369 18.7316 4.23314 18.6956C4.15259 18.6596 4.08057 18.6069 4.02183 18.5411C3.96309 18.4753 3.91895 18.3977 3.89231 18.3136C3.86568 18.2295 3.85715 18.1407 3.8673 18.0531ZM21.4673 3.75933C21.122 3.72922 20.7742 3.77124 20.446 3.88273C20.1178 3.99422 19.8164 4.17274 19.5608 4.40695C19.3053 4.64116 19.1013 4.92595 18.9617 5.24323C18.8222 5.5605 18.7501 5.90334 18.7501 6.24996V12.6046C18.7458 13.1943 18.9519 13.7662 19.3313 14.2175C19.7108 14.6689 20.2388 14.9701 20.8204 15.0671C21.9156 15.2478 22.9196 15.7878 23.6741 16.602C24.4285 17.4162 24.8906 18.4584 24.9875 19.5641C25.0843 20.6699 24.8105 21.7765 24.2091 22.7095C23.6076 23.6425 22.7129 24.3488 21.6657 24.7171C21.5439 24.7619 21.4387 24.843 21.3643 24.9495C21.29 25.0559 21.2501 25.1826 21.2501 25.3125V35.5046C21.2495 35.5931 21.2677 35.6807 21.3035 35.7617C21.3393 35.8426 21.3919 35.915 21.4578 35.9741C21.5237 36.0332 21.6014 36.0776 21.6857 36.1044C21.77 36.1312 21.8591 36.1398 21.947 36.1296C25.8468 35.6482 29.4414 33.7745 32.0695 30.8533C34.6976 27.9321 36.1822 24.16 36.2501 20.2312C36.3673 11.7484 29.8735 4.51246 21.4673 3.75933ZM18.3204 24.7125C17.6217 24.4632 16.9872 24.0616 16.4629 23.5368C15.9386 23.012 15.5377 22.3771 15.2892 21.6781C15.2466 21.5541 15.1666 21.4464 15.0603 21.3697C14.954 21.2931 14.8265 21.2512 14.6954 21.25H4.48761C4.39927 21.2494 4.31181 21.2676 4.23101 21.3033C4.1502 21.339 4.07788 21.3914 4.01882 21.4571C3.95977 21.5228 3.91531 21.6003 3.88838 21.6844C3.86145 21.7686 3.85267 21.8575 3.86261 21.9453C4.30029 25.5569 5.93609 28.9175 8.50856 31.4899C11.081 34.0624 14.4416 35.6982 18.0532 36.1359C18.141 36.1458 18.2299 36.1371 18.3141 36.1101C18.3982 36.0832 18.4757 36.0387 18.5414 35.9797C18.6071 35.9206 18.6595 35.8483 18.6952 35.7675C18.7309 35.6867 18.7491 35.5992 18.7485 35.5109V25.3125C18.7488 25.1803 18.7076 25.0513 18.6309 24.9437C18.5541 24.8361 18.4455 24.7552 18.3204 24.7125Z" fill="#00068C"/>
<path d="M3.8673 18.0531C4.23642 14.9579 5.50242 12.0381 7.50949 9.65308C7.73156 9.38529 8.00709 9.16679 8.31843 9.01157C8.62978 8.85635 8.9701 8.76782 9.31762 8.75164C9.66514 8.73546 10.0122 8.79199 10.3366 8.91762C10.6611 9.04325 10.9557 9.2352 11.2017 9.48121L15.5251 13.8968C15.9415 14.3122 16.1966 14.8621 16.245 15.4483C16.2934 16.0345 16.1318 16.6188 15.7892 17.0968C15.5296 17.465 15.3342 17.8744 15.211 18.3078C15.1719 18.4356 15.0929 18.5476 14.9854 18.6272C14.878 18.7067 14.7479 18.7498 14.6142 18.75H4.48917C4.40095 18.7501 4.31369 18.7316 4.23314 18.6956C4.15259 18.6596 4.08057 18.6069 4.02183 18.5411C3.96309 18.4753 3.91895 18.3977 3.89231 18.3136C3.86568 18.2295 3.85715 18.1407 3.8673 18.0531ZM21.4673 3.75933C21.122 3.72922 20.7742 3.77124 20.446 3.88273C20.1178 3.99422 19.8164 4.17274 19.5608 4.40695C19.3053 4.64116 19.1013 4.92595 18.9617 5.24323C18.8222 5.5605 18.7501 5.90334 18.7501 6.24996V12.6046C18.7458 13.1943 18.9519 13.7662 19.3313 14.2175C19.7108 14.6689 20.2388 14.9701 20.8204 15.0671C21.9156 15.2478 22.9196 15.7878 23.6741 16.602C24.4285 17.4162 24.8906 18.4584 24.9875 19.5641C25.0843 20.6699 24.8105 21.7765 24.2091 22.7095C23.6076 23.6425 22.7129 24.3488 21.6657 24.7171C21.5439 24.7619 21.4387 24.843 21.3643 24.9495C21.29 25.0559 21.2501 25.1826 21.2501 25.3125V35.5046C21.2495 35.5931 21.2677 35.6807 21.3035 35.7617C21.3393 35.8426 21.3919 35.915 21.4578 35.9741C21.5237 36.0332 21.6014 36.0776 21.6857 36.1044C21.77 36.1312 21.8591 36.1398 21.947 36.1296C25.8468 35.6482 29.4414 33.7745 32.0695 30.8533C34.6976 27.9321 36.1822 24.16 36.2501 20.2312C36.3673 11.7484 29.8735 4.51246 21.4673 3.75933ZM18.3204 24.7125C17.6217 24.4632 16.9872 24.0616 16.4629 23.5368C15.9386 23.012 15.5377 22.3771 15.2892 21.6781C15.2466 21.5541 15.1666 21.4464 15.0603 21.3697C14.954 21.2931 14.8265 21.2512 14.6954 21.25H4.48761C4.39927 21.2494 4.31181 21.2676 4.23101 21.3033C4.1502 21.339 4.07788 21.3914 4.01882 21.4571C3.95977 21.5228 3.91531 21.6003 3.88838 21.6844C3.86145 21.7686 3.85267 21.8575 3.86261 21.9453C4.30029 25.5569 5.93609 28.9175 8.50856 31.4899C11.081 34.0624 14.4416 35.6982 18.0532 36.1359C18.141 36.1458 18.2299 36.1371 18.3141 36.1101C18.3982 36.0832 18.4757 36.0387 18.5414 35.9797C18.6071 35.9206 18.6595 35.8483 18.6952 35.7675C18.7309 35.6867 18.7491 35.5992 18.7485 35.5109V25.3125C18.7488 25.1803 18.7076 25.0513 18.6309 24.9437C18.5541 24.8361 18.4455 24.7552 18.3204 24.7125Z" fill="url(#paint0_linear_18779_480)" fill-opacity="0.64"/>
<defs>
<linearGradient id="paint0_linear_18779_480" x1="3.85864" y1="3.74988" x2="19.6896" y2="42.8462" gradientUnits="userSpaceOnUse">
<stop stop-color="white"/>
<stop offset="1" stop-color="#1648FA"/>
</linearGradient>
</defs>
</svg>
