<svg width="40" height="40" viewBox="0 0 40 40" fill="none" xmlns="http://www.w3.org/2000/svg">
<path d="M25 8.75V23.75C25 24.0815 24.8683 24.3995 24.6339 24.6339C24.3995 24.8683 24.0815 25 23.75 25H17.5C17.1685 25 16.8505 24.8683 16.6161 24.6339C16.3817 24.3995 16.25 24.0815 16.25 23.75V8.75C16.25 8.41848 16.3817 8.10054 16.6161 7.86612C16.8505 7.6317 17.1685 7.5 17.5 7.5H23.75C24.0815 7.5 24.3995 7.6317 24.6339 7.86612C24.8683 8.10054 25 8.41848 25 8.75ZM35 7.5H28.75C28.4185 7.5 28.1005 7.6317 27.8661 7.86612C27.6317 8.10054 27.5 8.41848 27.5 8.75V16.25C27.5 16.5815 27.6317 16.8995 27.8661 17.1339C28.1005 17.3683 28.4185 17.5 28.75 17.5H35C35.3315 17.5 35.6495 17.3683 35.8839 17.1339C36.1183 16.8995 36.25 16.5815 36.25 16.25V8.75C36.25 8.41848 36.1183 8.10054 35.8839 7.86612C35.6495 7.6317 35.3315 7.5 35 7.5ZM35 20H28.75C28.4185 20 28.1005 20.1317 27.8661 20.3661C27.6317 20.6005 27.5 20.9185 27.5 21.25V27.5C27.5 28.163 27.7634 28.7989 28.2322 29.2678C28.7011 29.7366 29.337 30 30 30H33.75C34.413 30 35.0489 29.7366 35.5178 29.2678C35.9866 28.7989 36.25 28.163 36.25 27.5V21.25C36.25 20.9185 36.1183 20.6005 35.8839 20.3661C35.6495 20.1317 35.3315 20 35 20ZM12.5 7.5H6.25C5.91848 7.5 5.60054 7.6317 5.36612 7.86612C5.1317 8.10054 5 8.41848 5 8.75V16.25C5 16.5815 5.1317 16.8995 5.36612 17.1339C5.60054 17.3683 5.91848 17.5 6.25 17.5H12.5C12.8315 17.5 13.1495 17.3683 13.3839 17.1339C13.6183 16.8995 13.75 16.5815 13.75 16.25V8.75C13.75 8.41848 13.6183 8.10054 13.3839 7.86612C13.1495 7.6317 12.8315 7.5 12.5 7.5ZM12.5 20H6.25C5.91848 20 5.60054 20.1317 5.36612 20.3661C5.1317 20.6005 5 20.9185 5 21.25V32.5C5 33.163 5.26339 33.7989 5.73223 34.2678C6.20107 34.7366 6.83696 35 7.5 35H11.25C11.913 35 12.5489 34.7366 13.0178 34.2678C13.4866 33.7989 13.75 33.163 13.75 32.5V21.25C13.75 20.9185 13.6183 20.6005 13.3839 20.3661C13.1495 20.1317 12.8315 20 12.5 20Z" fill="#00068C"/>
<path d="M25 8.75V23.75C25 24.0815 24.8683 24.3995 24.6339 24.6339C24.3995 24.8683 24.0815 25 23.75 25H17.5C17.1685 25 16.8505 24.8683 16.6161 24.6339C16.3817 24.3995 16.25 24.0815 16.25 23.75V8.75C16.25 8.41848 16.3817 8.10054 16.6161 7.86612C16.8505 7.6317 17.1685 7.5 17.5 7.5H23.75C24.0815 7.5 24.3995 7.6317 24.6339 7.86612C24.8683 8.10054 25 8.41848 25 8.75ZM35 7.5H28.75C28.4185 7.5 28.1005 7.6317 27.8661 7.86612C27.6317 8.10054 27.5 8.41848 27.5 8.75V16.25C27.5 16.5815 27.6317 16.8995 27.8661 17.1339C28.1005 17.3683 28.4185 17.5 28.75 17.5H35C35.3315 17.5 35.6495 17.3683 35.8839 17.1339C36.1183 16.8995 36.25 16.5815 36.25 16.25V8.75C36.25 8.41848 36.1183 8.10054 35.8839 7.86612C35.6495 7.6317 35.3315 7.5 35 7.5ZM35 20H28.75C28.4185 20 28.1005 20.1317 27.8661 20.3661C27.6317 20.6005 27.5 20.9185 27.5 21.25V27.5C27.5 28.163 27.7634 28.7989 28.2322 29.2678C28.7011 29.7366 29.337 30 30 30H33.75C34.413 30 35.0489 29.7366 35.5178 29.2678C35.9866 28.7989 36.25 28.163 36.25 27.5V21.25C36.25 20.9185 36.1183 20.6005 35.8839 20.3661C35.6495 20.1317 35.3315 20 35 20ZM12.5 7.5H6.25C5.91848 7.5 5.60054 7.6317 5.36612 7.86612C5.1317 8.10054 5 8.41848 5 8.75V16.25C5 16.5815 5.1317 16.8995 5.36612 17.1339C5.60054 17.3683 5.91848 17.5 6.25 17.5H12.5C12.8315 17.5 13.1495 17.3683 13.3839 17.1339C13.6183 16.8995 13.75 16.5815 13.75 16.25V8.75C13.75 8.41848 13.6183 8.10054 13.3839 7.86612C13.1495 7.6317 12.8315 7.5 12.5 7.5ZM12.5 20H6.25C5.91848 20 5.60054 20.1317 5.36612 20.3661C5.1317 20.6005 5 20.9185 5 21.25V32.5C5 33.163 5.26339 33.7989 5.73223 34.2678C6.20107 34.7366 6.83696 35 7.5 35H11.25C11.913 35 12.5489 34.7366 13.0178 34.2678C13.4866 33.7989 13.75 33.163 13.75 32.5V21.25C13.75 20.9185 13.6183 20.6005 13.3839 20.3661C13.1495 20.1317 12.8315 20 12.5 20Z" fill="url(#paint0_linear_18779_399)" fill-opacity="0.64"/>
<defs>
<linearGradient id="paint0_linear_18779_399" x1="5" y1="7.5" x2="17.2171" y2="41.7826" gradientUnits="userSpaceOnUse">
<stop stop-color="white"/>
<stop offset="1" stop-color="#1648FA"/>
</linearGradient>
</defs>
</svg>
