<svg width="160" height="34" viewBox="0 0 160 34" fill="none" xmlns="http://www.w3.org/2000/svg">
<path d="M23.5818 23.2647L1.4546 30.6344C1.22046 30.7119 0.969602 30.7041 0.739866 30.6123C0.51013 30.5206 0.313987 30.3497 0.181033 30.1257C0.0480792 29.9016 -0.0144722 29.6364 0.00282128 29.3701C0.0201148 29.1038 0.116314 28.8509 0.276901 28.6495L7.23394 20.0107L1.72464 12.6974C1.6062 12.5405 1.5252 12.3541 1.48889 12.1548C1.45258 11.9555 1.46208 11.7495 1.51655 11.5552C1.57102 11.3608 1.66876 11.1842 1.80104 11.0412C1.93332 10.8981 2.09601 10.7931 2.27459 10.7353L24.4018 3.36558C24.6359 3.28815 24.8868 3.29591 25.1165 3.38769C25.3463 3.47947 25.5424 3.65029 25.6754 3.87437C25.8083 4.09845 25.8709 4.36364 25.8536 4.62991C25.8363 4.89619 25.7401 5.1491 25.5795 5.35049L18.6119 13.9969L24.1233 21.3062C24.2405 21.4628 24.3204 21.6484 24.3562 21.8466C24.3919 22.0449 24.3824 22.2497 24.3284 22.443C24.2744 22.6363 24.1776 22.8121 24.0465 22.9549C23.9154 23.0976 23.7542 23.203 23.5769 23.2616L23.5818 23.2647Z" fill="white"/>
<path d="M38.4847 12.9514C38.4847 17.2295 48.2747 13.765 48.2747 21.0613C48.2747 24.657 45.5807 26.7042 41.8764 26.7042C38.148 26.7042 35.502 24.8145 34.8766 20.9301H38.2682C38.6772 22.8198 39.928 23.8696 41.9004 23.8696C43.921 23.8696 44.9553 22.951 44.9553 21.5075C44.9553 16.967 35.1893 20.3789 35.1893 13.2664C35.1893 10.4318 37.3301 8.06972 41.2028 8.06972C44.4983 8.06972 47.2885 9.80193 47.8177 13.8175H44.378C43.9931 11.8229 42.8626 10.9043 41.1066 10.9043C39.4709 10.9043 38.4847 11.7179 38.4847 12.9514Z" fill="white"/>
<path d="M50.8519 21.9274V14.8411H49.1922V12.2428H50.8519V9.01456H53.9309V12.2428H56.649V14.8411H53.9309V21.6387C53.9309 23.1085 54.3157 23.8959 56.0236 23.8959H56.6009V26.363C56.2641 26.5467 55.5665 26.7042 54.7246 26.7042C52.1027 26.7042 50.8519 25.0769 50.8519 21.9274Z" fill="white"/>
<path d="M70.2157 21.7175C69.5181 24.9719 67.2089 26.7042 64.13 26.7042C60.2332 26.7042 57.8519 23.8959 57.8519 19.3029C57.8519 14.5262 60.2573 11.8491 64.0097 11.8491C67.7862 11.8491 70.1195 14.6311 70.1195 19.1716V19.959H61.027C61.1713 22.5311 62.2538 23.9484 64.13 23.9484C65.5732 23.9484 66.5595 23.2135 66.9684 21.7175H70.2157ZM64.0097 14.6049C62.3741 14.6049 61.3878 15.7335 61.0992 17.8594H66.8962C66.6076 15.7597 65.6214 14.6049 64.0097 14.6049Z" fill="white"/>
<path d="M72.43 26.3105V7.41357H75.5089V26.3105H72.43Z" fill="white"/>
<path d="M78.3261 26.3105V7.41357H81.405V26.3105H78.3261Z" fill="white"/>
<path d="M87.2049 16.862H84.1019C84.5108 13.7388 86.6035 11.8491 89.8508 11.8491C93.4349 11.8491 95.263 14.1587 95.263 17.4132V22.8723C95.263 24.6045 95.4073 25.5756 95.6479 26.3105H92.4487C92.2803 25.8381 92.2081 25.1557 92.1841 24.3945C91.1257 26.0218 89.5381 26.7042 87.9987 26.7042C85.473 26.7042 83.6689 25.3394 83.6689 22.6361C83.6689 20.7201 84.6551 19.2766 86.6276 18.568C88.3354 17.9381 89.9952 17.7806 92.16 17.7544V17.4132C92.16 15.6022 91.3662 14.6311 89.6584 14.6311C88.1911 14.6311 87.3973 15.5235 87.2049 16.862ZM86.7719 22.4524C86.7719 23.5284 87.5416 24.2108 88.7924 24.2108C90.6927 24.2108 92.16 22.5311 92.16 20.4314V19.8278C87.7822 19.9065 86.7719 21.0351 86.7719 22.4524Z" fill="white"/>
<path d="M98.1989 26.3105V12.2428H101.278V14.2899C102.12 12.6102 103.419 11.8491 104.814 11.8491C105.343 11.8491 105.824 12.0066 106.065 12.2428V15.1561C105.656 15.0248 105.199 14.9723 104.645 14.9723C102.312 14.9723 101.278 16.4946 101.278 18.8305V26.3105H98.1989Z" fill="white"/>
<path d="M112.187 26.3105V11.3767H106.919V8.4634H120.702V11.3767H115.434V26.3105H112.187Z" fill="white"/>
<path d="M132.559 21.7175C131.862 24.9719 129.552 26.7042 126.473 26.7042C122.577 26.7042 120.195 23.8959 120.195 19.3029C120.195 14.5262 122.601 11.8491 126.353 11.8491C130.13 11.8491 132.463 14.6311 132.463 19.1716V19.959H123.37C123.515 22.5311 124.597 23.9484 126.473 23.9484C127.917 23.9484 128.903 23.2135 129.312 21.7175H132.559ZM126.353 14.6049C124.717 14.6049 123.731 15.7335 123.443 17.8594H129.24C128.951 15.7597 127.965 14.6049 126.353 14.6049Z" fill="white"/>
<path d="M145.935 17.2295H142.856C142.567 15.3923 141.557 14.6311 140.258 14.6311C138.358 14.6311 137.347 16.2846 137.347 19.3029C137.347 22.2686 138.406 23.9221 140.354 23.9221C141.677 23.9221 142.615 23.1347 142.928 21.5338H146.031C145.453 25.0507 143.192 26.7042 140.282 26.7042C136.481 26.7042 134.172 23.8696 134.172 19.3029C134.172 14.5262 136.553 11.8491 140.258 11.8491C143.192 11.8491 145.502 13.6338 145.935 17.2295Z" fill="white"/>
<path d="M148.163 26.3105V7.41357H151.242V14.1325C152.084 12.6102 153.431 11.8491 155.066 11.8491C157.64 11.8491 159.396 13.5288 159.396 16.9408V26.3105H156.317V17.6231C156.317 15.7072 155.572 14.6311 154.008 14.6311C152.3 14.6311 151.242 16.2584 151.242 18.1481V26.3105H148.163Z" fill="white"/>
</svg>
