<svg width="126" height="24" viewBox="0 0 126 24" fill="none" xmlns="http://www.w3.org/2000/svg">
<path d="M11.3 20L16.3 10.25H12.8V4L7.8 13.75H11.3V20ZM12 22C10.6167 22 9.31667 21.7373 8.1 21.212C6.88334 20.6867 5.825 19.9743 4.925 19.075C4.025 18.1757 3.31267 17.1173 2.788 15.9C2.26333 14.6827 2.00067 13.3827 2 12C1.99933 10.6173 2.262 9.31733 2.788 8.1C3.314 6.88267 4.02633 5.82433 4.925 4.925C5.82367 4.02567 6.882 3.31333 8.1 2.788C9.318 2.26267 10.618 2 12 2C13.382 2 14.682 2.26267 15.9 2.788C17.118 3.31333 18.1763 4.02567 19.075 4.925C19.9737 5.82433 20.6863 6.88267 21.213 8.1C21.7397 9.31733 22.002 10.6173 22 12C21.998 13.3827 21.7353 14.6827 21.212 15.9C20.6887 17.1173 19.9763 18.1757 19.075 19.075C18.1737 19.9743 17.1153 20.687 15.9 21.213C14.6847 21.739 13.3847 22.0013 12 22Z" fill="white"/>
<path d="M36.36 20V7.26H32.6V5.3H42.38V7.26H38.58V20H36.36ZM42.9303 20V10.82H45.0903V12.62C45.3036 12.02 45.6436 11.5333 46.1103 11.16C46.5903 10.7733 47.1436 10.58 47.7703 10.58C48.197 10.58 48.4903 10.62 48.6503 10.7L48.3503 12.88C48.2303 12.8 47.9703 12.76 47.5703 12.76C47.237 12.76 46.877 12.8333 46.4903 12.98C46.1036 13.1267 45.7703 13.3867 45.4903 13.76C45.2236 14.12 45.0903 14.6267 45.0903 15.28V20H42.9303ZM53.9448 20.2C53.1315 20.2 52.3715 20.0067 51.6648 19.62C50.9715 19.2333 50.4115 18.68 49.9848 17.96C49.5582 17.24 49.3448 16.38 49.3448 15.38C49.3448 14.42 49.5248 13.58 49.8848 12.86C50.2582 12.14 50.7782 11.58 51.4448 11.18C52.1248 10.78 52.9315 10.58 53.8648 10.58C54.4248 10.58 54.9315 10.68 55.3848 10.88C55.8515 11.0667 56.2382 11.3 56.5448 11.58C56.8648 11.8467 57.0782 12.1067 57.1848 12.36L57.2248 10.82H59.2848V20H57.2448L57.2048 18.38C57.0715 18.6733 56.8448 18.96 56.5248 19.24C56.2182 19.52 55.8448 19.7533 55.4048 19.94C54.9648 20.1133 54.4782 20.2 53.9448 20.2ZM54.3048 18.4C54.7982 18.4 55.2448 18.2867 55.6448 18.06C56.0582 17.82 56.3848 17.4867 56.6248 17.06C56.8782 16.6333 57.0048 16.1267 57.0048 15.54V15.4C57.0048 14.8 56.8782 14.28 56.6248 13.84C56.3848 13.3867 56.0582 13.04 55.6448 12.8C55.2448 12.5467 54.7982 12.42 54.3048 12.42C53.4115 12.42 52.7382 12.7067 52.2848 13.28C51.8448 13.8533 51.6248 14.56 51.6248 15.4C51.6248 16.2533 51.8448 16.9667 52.2848 17.54C52.7382 18.1133 53.4115 18.4 54.3048 18.4ZM66.2742 20.2C65.3809 20.2 64.5676 20.0067 63.8342 19.62C63.1142 19.2333 62.5342 18.6733 62.0942 17.94C61.6676 17.2067 61.4542 16.3267 61.4542 15.3C61.4542 14.34 61.6476 13.5067 62.0342 12.8C62.4342 12.0933 62.9876 11.5467 63.6942 11.16C64.4142 10.7733 65.2409 10.58 66.1742 10.58C66.9476 10.58 67.5809 10.68 68.0742 10.88C68.5809 11.08 68.9609 11.2933 69.2142 11.52L68.2542 13.26C68.2009 13.1933 68.0942 13.0933 67.9342 12.96C67.7742 12.8267 67.5609 12.7067 67.2942 12.6C67.0409 12.48 66.7276 12.42 66.3542 12.42C65.4742 12.42 64.8142 12.6867 64.3742 13.22C63.9476 13.7533 63.7342 14.44 63.7342 15.28C63.7342 16.2533 63.9609 17.02 64.4142 17.58C64.8809 18.1267 65.5276 18.4 66.3542 18.4C66.7942 18.4 67.2076 18.34 67.5942 18.22C67.9809 18.0867 68.2742 17.9467 68.4742 17.8L69.2542 19.32C69.0142 19.5067 68.6342 19.7 68.1142 19.9C67.5942 20.1 66.9809 20.2 66.2742 20.2ZM71.3325 20V5.3H73.3925V13.36L73.3525 14.92L76.8525 10.82H79.5125L76.0525 14.66L79.5325 20H76.9925L75.1325 17L74.6125 15.98L73.4125 17.28V20H71.3325ZM81.372 20V5.3H88.272V7.24H83.592V11.4H87.232V13.36H83.592V20H81.372ZM93.4422 20.2C92.4822 20.2 91.6355 19.9867 90.9022 19.56C90.1822 19.1333 89.6222 18.5533 89.2222 17.82C88.8222 17.0867 88.6222 16.2733 88.6222 15.38C88.6222 14.5 88.8155 13.7 89.2022 12.98C89.6022 12.2467 90.1622 11.6667 90.8822 11.24C91.6022 10.8 92.4555 10.58 93.4422 10.58C94.4289 10.58 95.2822 10.8 96.0022 11.24C96.7222 11.6667 97.2755 12.2467 97.6622 12.98C98.0489 13.7 98.2422 14.5 98.2422 15.38C98.2422 16.2733 98.0422 17.0867 97.6422 17.82C97.2555 18.5533 96.7022 19.1333 95.9822 19.56C95.2622 19.9867 94.4155 20.2 93.4422 20.2ZM93.5022 18.44C94.3022 18.44 94.9155 18.1467 95.3422 17.56C95.7822 16.9733 96.0022 16.26 96.0022 15.42C96.0022 14.8467 95.8955 14.3333 95.6822 13.88C95.4689 13.4133 95.1622 13.04 94.7622 12.76C94.3755 12.48 93.9155 12.34 93.3822 12.34C92.8622 12.34 92.4155 12.48 92.0422 12.76C91.6689 13.04 91.3755 13.4133 91.1622 13.88C90.9622 14.3333 90.8622 14.8467 90.8622 15.42C90.8622 15.98 90.9755 16.4933 91.2022 16.96C91.4289 17.4133 91.7355 17.7733 92.1222 18.04C92.5222 18.3067 92.9822 18.44 93.5022 18.44ZM100.333 20V10.82H102.493V12.62C102.706 12.02 103.046 11.5333 103.513 11.16C103.993 10.7733 104.546 10.58 105.173 10.58C105.599 10.58 105.893 10.62 106.053 10.7L105.753 12.88C105.633 12.8 105.373 12.76 104.973 12.76C104.639 12.76 104.279 12.8333 103.893 12.98C103.506 13.1267 103.173 13.3867 102.893 13.76C102.626 14.12 102.493 14.6267 102.493 15.28V20H100.333ZM111.528 20.2C110.635 20.2 109.821 20.0067 109.088 19.62C108.368 19.2333 107.788 18.6733 107.348 17.94C106.921 17.2067 106.708 16.3267 106.708 15.3C106.708 14.34 106.901 13.5067 107.288 12.8C107.688 12.0933 108.241 11.5467 108.948 11.16C109.668 10.7733 110.495 10.58 111.428 10.58C112.201 10.58 112.835 10.68 113.328 10.88C113.835 11.08 114.215 11.2933 114.468 11.52L113.508 13.26C113.455 13.1933 113.348 13.0933 113.188 12.96C113.028 12.8267 112.815 12.7067 112.548 12.6C112.295 12.48 111.981 12.42 111.608 12.42C110.728 12.42 110.068 12.6867 109.628 13.22C109.201 13.7533 108.988 14.44 108.988 15.28C108.988 16.2533 109.215 17.02 109.668 17.58C110.135 18.1267 110.781 18.4 111.608 18.4C112.048 18.4 112.461 18.34 112.848 18.22C113.235 18.0867 113.528 17.9467 113.728 17.8L114.508 19.32C114.268 19.5067 113.888 19.7 113.368 19.9C112.848 20.1 112.235 20.2 111.528 20.2ZM120.553 20.2C119.406 20.2 118.473 19.98 117.753 19.54C117.033 19.0867 116.506 18.4933 116.173 17.76C115.84 17.0267 115.673 16.2467 115.673 15.42C115.673 14.42 115.873 13.56 116.273 12.84C116.686 12.12 117.253 11.5667 117.973 11.18C118.693 10.78 119.506 10.58 120.413 10.58C121.866 10.58 122.926 10.9867 123.593 11.8C124.26 12.6 124.593 13.68 124.593 15.04C124.593 15.4 124.573 15.7733 124.533 16.16H117.933C118.08 16.9867 118.373 17.58 118.813 17.94C119.266 18.2867 119.866 18.46 120.613 18.46C121.333 18.46 121.9 18.3933 122.313 18.26C122.726 18.1267 123.066 17.9933 123.333 17.86L123.993 19.4C123.726 19.5733 123.313 19.7533 122.753 19.94C122.193 20.1133 121.46 20.2 120.553 20.2ZM117.933 14.66H122.493C122.506 13.7933 122.313 13.2 121.913 12.88C121.513 12.56 120.993 12.4 120.353 12.4C119.686 12.4 119.14 12.58 118.713 12.94C118.3 13.2867 118.04 13.86 117.933 14.66Z" fill="white"/>
</svg>
