<svg width="40" height="40" viewBox="0 0 40 40" fill="none" xmlns="http://www.w3.org/2000/svg">
<path d="M35.664 9.85469L34.9359 9.43438C35.0213 8.98212 35.0213 8.51788 34.9359 8.06562L35.664 7.64531C35.9512 7.47955 36.1607 7.2065 36.2466 6.88622C36.3324 6.56595 36.2876 6.22468 36.1218 5.9375C35.956 5.65032 35.683 5.44075 35.3627 5.35489C35.0424 5.26904 34.7012 5.31393 34.414 5.47969L33.6843 5.90156C33.3351 5.60196 32.9336 5.36942 32.4999 5.21563V4.375C32.4999 4.04348 32.3682 3.72554 32.1338 3.49112C31.8994 3.2567 31.5814 3.125 31.2499 3.125C30.9184 3.125 30.6005 3.2567 30.366 3.49112C30.1316 3.72554 29.9999 4.04348 29.9999 4.375V5.21563C29.5663 5.36942 29.1647 5.60196 28.8155 5.90156L28.0859 5.47969C27.9437 5.39761 27.7867 5.34435 27.6239 5.32293C27.4611 5.30152 27.2957 5.31238 27.1371 5.35489C26.9785 5.39741 26.8299 5.47074 26.6996 5.5707C26.5694 5.67066 26.4601 5.7953 26.378 5.9375C26.296 6.0797 26.2427 6.23667 26.2213 6.39945C26.1999 6.56223 26.2107 6.72764 26.2533 6.88622C26.2958 7.04481 26.3691 7.19347 26.4691 7.32371C26.569 7.45396 26.6937 7.56324 26.8359 7.64531L27.564 8.06562C27.4786 8.51788 27.4786 8.98212 27.564 9.43438L26.8359 9.85469C26.5974 9.99221 26.411 10.2046 26.3056 10.4589C26.2002 10.7131 26.1817 10.9951 26.253 11.261C26.3242 11.5269 26.4812 11.7618 26.6996 11.9293C26.918 12.0969 27.1856 12.1876 27.4609 12.1875C27.6803 12.1882 27.896 12.1305 28.0859 12.0203L28.8155 11.5984C29.1647 11.898 29.5663 12.1306 29.9999 12.2844V13.125C29.9999 13.4565 30.1316 13.7745 30.366 14.0089C30.6005 14.2433 30.9184 14.375 31.2499 14.375C31.5814 14.375 31.8994 14.2433 32.1338 14.0089C32.3682 13.7745 32.4999 13.4565 32.4999 13.125V12.2844C32.9336 12.1306 33.3351 11.898 33.6843 11.5984L34.414 12.0203C34.6038 12.1305 34.8195 12.1882 35.039 12.1875C35.3142 12.1876 35.5818 12.0969 35.8002 11.9293C36.0187 11.7618 36.1757 11.5269 36.2469 11.261C36.3181 10.9951 36.2996 10.7131 36.1942 10.4589C36.0888 10.2046 35.9024 9.99221 35.664 9.85469ZM31.2499 10C31.0027 10 30.761 9.92669 30.5555 9.78934C30.3499 9.65199 30.1897 9.45676 30.0951 9.22835C30.0005 8.99995 29.9757 8.74861 30.0239 8.50614C30.0722 8.26366 30.1912 8.04093 30.366 7.86612C30.5408 7.6913 30.7636 7.57225 31.0061 7.52402C31.2485 7.47579 31.4999 7.50054 31.7283 7.59515C31.9567 7.68976 32.1519 7.84998 32.2893 8.05554C32.4266 8.2611 32.4999 8.50277 32.4999 8.75C32.4999 9.08152 32.3682 9.39946 32.1338 9.63388C31.8994 9.8683 31.5814 10 31.2499 10ZM19.9999 11.875C21.3597 11.875 22.6889 12.2782 23.8195 13.0336C24.9501 13.7891 25.8312 14.8628 26.3516 16.1191C26.8719 17.3753 27.0081 18.7576 26.7428 20.0912C26.4775 21.4249 25.8228 22.6499 24.8613 23.6114C23.8998 24.5728 22.6748 25.2276 21.3412 25.4929C20.0075 25.7582 18.6252 25.622 17.369 25.1017C16.1127 24.5813 15.039 23.7001 14.2836 22.5695C13.5281 21.439 13.1249 20.1097 13.1249 18.75C13.1249 16.9266 13.8492 15.178 15.1386 13.8886C16.4279 12.5993 18.1766 11.875 19.9999 11.875ZM36.0249 17.2937C36.596 20.6884 36.0735 24.1767 34.5328 27.2549C32.9921 30.3332 30.513 32.8422 27.4534 34.4197C24.3938 35.9972 20.912 36.5615 17.5108 36.0311C14.1095 35.5008 10.9649 33.9032 8.53077 31.4691C6.09668 29.0351 4.49914 25.8904 3.96879 22.4892C3.43844 19.0879 4.00274 15.6062 5.58021 12.5466C7.15767 9.48695 9.66668 7.00783 12.745 5.46715C15.8233 3.92646 19.3115 3.40393 22.7062 3.975C23.0306 4.03238 23.3193 4.21557 23.5095 4.4847C23.6996 4.75384 23.7757 5.08716 23.7214 5.41216C23.667 5.73716 23.4865 6.02754 23.2191 6.22014C22.9518 6.41274 22.6192 6.49198 22.2937 6.44063C20.322 6.10895 18.3017 6.2109 16.3735 6.73938C14.4452 7.26787 12.6553 8.2102 11.1282 9.50078C9.60118 10.7914 8.37371 12.3992 7.53123 14.2124C6.68875 16.0256 6.2515 18.0006 6.24992 20C6.24696 23.3659 7.48406 26.615 9.72492 29.1266C10.6337 27.8085 11.7881 26.6779 13.1249 25.7969C13.2389 25.7216 13.3744 25.6857 13.5107 25.6948C13.647 25.7038 13.7766 25.7572 13.8796 25.8469C15.5779 27.3164 17.7486 28.1251 19.9944 28.1251C22.2403 28.1251 24.411 27.3164 26.1093 25.8469C26.2125 25.7569 26.3423 25.7032 26.479 25.6942C26.6156 25.6851 26.7514 25.7212 26.8655 25.7969C28.2037 26.6779 29.3596 27.8084 30.2702 29.1266C32.5128 26.6157 33.7516 23.3665 33.7499 20C33.75 19.2315 33.6862 18.4642 33.5593 17.7063C33.5305 17.5436 33.5343 17.377 33.5703 17.2158C33.6063 17.0547 33.674 16.9022 33.7692 16.7674C33.8645 16.6325 33.9855 16.5178 34.1254 16.43C34.2652 16.3422 34.4211 16.283 34.5839 16.2557C34.7468 16.2285 34.9134 16.2338 35.0743 16.2713C35.2351 16.3088 35.3868 16.3778 35.5208 16.4743C35.6548 16.5708 35.7683 16.693 35.8549 16.8336C35.9414 16.9742 35.9992 17.1306 36.0249 17.2937Z" fill="#00068C"/>
<path d="M35.664 9.85469L34.9359 9.43438C35.0213 8.98212 35.0213 8.51788 34.9359 8.06562L35.664 7.64531C35.9512 7.47955 36.1607 7.2065 36.2466 6.88622C36.3324 6.56595 36.2876 6.22468 36.1218 5.9375C35.956 5.65032 35.683 5.44075 35.3627 5.35489C35.0424 5.26904 34.7012 5.31393 34.414 5.47969L33.6843 5.90156C33.3351 5.60196 32.9336 5.36942 32.4999 5.21563V4.375C32.4999 4.04348 32.3682 3.72554 32.1338 3.49112C31.8994 3.2567 31.5814 3.125 31.2499 3.125C30.9184 3.125 30.6005 3.2567 30.366 3.49112C30.1316 3.72554 29.9999 4.04348 29.9999 4.375V5.21563C29.5663 5.36942 29.1647 5.60196 28.8155 5.90156L28.0859 5.47969C27.9437 5.39761 27.7867 5.34435 27.6239 5.32293C27.4611 5.30152 27.2957 5.31238 27.1371 5.35489C26.9785 5.39741 26.8299 5.47074 26.6996 5.5707C26.5694 5.67066 26.4601 5.7953 26.378 5.9375C26.296 6.0797 26.2427 6.23667 26.2213 6.39945C26.1999 6.56223 26.2107 6.72764 26.2533 6.88622C26.2958 7.04481 26.3691 7.19347 26.4691 7.32371C26.569 7.45396 26.6937 7.56324 26.8359 7.64531L27.564 8.06562C27.4786 8.51788 27.4786 8.98212 27.564 9.43438L26.8359 9.85469C26.5974 9.99221 26.411 10.2046 26.3056 10.4589C26.2002 10.7131 26.1817 10.9951 26.253 11.261C26.3242 11.5269 26.4812 11.7618 26.6996 11.9293C26.918 12.0969 27.1856 12.1876 27.4609 12.1875C27.6803 12.1882 27.896 12.1305 28.0859 12.0203L28.8155 11.5984C29.1647 11.898 29.5663 12.1306 29.9999 12.2844V13.125C29.9999 13.4565 30.1316 13.7745 30.366 14.0089C30.6005 14.2433 30.9184 14.375 31.2499 14.375C31.5814 14.375 31.8994 14.2433 32.1338 14.0089C32.3682 13.7745 32.4999 13.4565 32.4999 13.125V12.2844C32.9336 12.1306 33.3351 11.898 33.6843 11.5984L34.414 12.0203C34.6038 12.1305 34.8195 12.1882 35.039 12.1875C35.3142 12.1876 35.5818 12.0969 35.8002 11.9293C36.0187 11.7618 36.1757 11.5269 36.2469 11.261C36.3181 10.9951 36.2996 10.7131 36.1942 10.4589C36.0888 10.2046 35.9024 9.99221 35.664 9.85469ZM31.2499 10C31.0027 10 30.761 9.92669 30.5555 9.78934C30.3499 9.65199 30.1897 9.45676 30.0951 9.22835C30.0005 8.99995 29.9757 8.74861 30.0239 8.50614C30.0722 8.26366 30.1912 8.04093 30.366 7.86612C30.5408 7.6913 30.7636 7.57225 31.0061 7.52402C31.2485 7.47579 31.4999 7.50054 31.7283 7.59515C31.9567 7.68976 32.1519 7.84998 32.2893 8.05554C32.4266 8.2611 32.4999 8.50277 32.4999 8.75C32.4999 9.08152 32.3682 9.39946 32.1338 9.63388C31.8994 9.8683 31.5814 10 31.2499 10ZM19.9999 11.875C21.3597 11.875 22.6889 12.2782 23.8195 13.0336C24.9501 13.7891 25.8312 14.8628 26.3516 16.1191C26.8719 17.3753 27.0081 18.7576 26.7428 20.0912C26.4775 21.4249 25.8228 22.6499 24.8613 23.6114C23.8998 24.5728 22.6748 25.2276 21.3412 25.4929C20.0075 25.7582 18.6252 25.622 17.369 25.1017C16.1127 24.5813 15.039 23.7001 14.2836 22.5695C13.5281 21.439 13.1249 20.1097 13.1249 18.75C13.1249 16.9266 13.8492 15.178 15.1386 13.8886C16.4279 12.5993 18.1766 11.875 19.9999 11.875ZM36.0249 17.2937C36.596 20.6884 36.0735 24.1767 34.5328 27.2549C32.9921 30.3332 30.513 32.8422 27.4534 34.4197C24.3938 35.9972 20.912 36.5615 17.5108 36.0311C14.1095 35.5008 10.9649 33.9032 8.53077 31.4691C6.09668 29.0351 4.49914 25.8904 3.96879 22.4892C3.43844 19.0879 4.00274 15.6062 5.58021 12.5466C7.15767 9.48695 9.66668 7.00783 12.745 5.46715C15.8233 3.92646 19.3115 3.40393 22.7062 3.975C23.0306 4.03238 23.3193 4.21557 23.5095 4.4847C23.6996 4.75384 23.7757 5.08716 23.7214 5.41216C23.667 5.73716 23.4865 6.02754 23.2191 6.22014C22.9518 6.41274 22.6192 6.49198 22.2937 6.44063C20.322 6.10895 18.3017 6.2109 16.3735 6.73938C14.4452 7.26787 12.6553 8.2102 11.1282 9.50078C9.60118 10.7914 8.37371 12.3992 7.53123 14.2124C6.68875 16.0256 6.2515 18.0006 6.24992 20C6.24696 23.3659 7.48406 26.615 9.72492 29.1266C10.6337 27.8085 11.7881 26.6779 13.1249 25.7969C13.2389 25.7216 13.3744 25.6857 13.5107 25.6948C13.647 25.7038 13.7766 25.7572 13.8796 25.8469C15.5779 27.3164 17.7486 28.1251 19.9944 28.1251C22.2403 28.1251 24.411 27.3164 26.1093 25.8469C26.2125 25.7569 26.3423 25.7032 26.479 25.6942C26.6156 25.6851 26.7514 25.7212 26.8655 25.7969C28.2037 26.6779 29.3596 27.8084 30.2702 29.1266C32.5128 26.6157 33.7516 23.3665 33.7499 20C33.75 19.2315 33.6862 18.4642 33.5593 17.7063C33.5305 17.5436 33.5343 17.377 33.5703 17.2158C33.6063 17.0547 33.674 16.9022 33.7692 16.7674C33.8645 16.6325 33.9855 16.5178 34.1254 16.43C34.2652 16.3422 34.4211 16.283 34.5839 16.2557C34.7468 16.2285 34.9134 16.2338 35.0743 16.2713C35.2351 16.3088 35.3868 16.3778 35.5208 16.4743C35.6548 16.5708 35.7683 16.693 35.8549 16.8336C35.9414 16.9742 35.9992 17.1306 36.0249 17.2937Z" fill="url(#paint0_linear_18779_1323)" fill-opacity="0.64"/>
<defs>
<linearGradient id="paint0_linear_18779_1323" x1="3.7749" y1="3.125" x2="20.1614" y2="42.8738" gradientUnits="userSpaceOnUse">
<stop stop-color="white"/>
<stop offset="1" stop-color="#1648FA"/>
</linearGradient>
</defs>
</svg>
